<svg width="123" height="257" viewBox="0 0 123 257" fill="none" xmlns="http://www.w3.org/2000/svg">
<rect y="7" width="123" height="250" fill="#F8F8F8"/>
<path d="M100 243H13.6303V241.753H100V243ZM100 236.764H13.6303L13.6303 235.517H100V236.764ZM112.368 238.843C112.368 239.397 112.23 239.951 111.952 240.506C111.745 240.991 111.467 241.406 111.121 241.753L110.082 241.025L109.978 240.921L110.082 240.817C110.22 240.748 110.324 240.713 110.393 240.713C110.463 240.644 110.567 240.575 110.705 240.506C110.844 240.228 110.982 239.986 111.121 239.778C111.19 239.501 111.225 239.189 111.225 238.843C111.225 238.15 111.052 237.63 110.705 237.284C110.29 236.937 109.735 236.764 109.042 236.764C108.349 236.764 107.83 237.006 107.483 237.491C107.137 237.907 106.964 238.496 106.964 239.258C106.964 239.397 106.964 239.605 106.964 239.882H106.028C106.028 238.843 105.82 238.115 105.405 237.699C104.989 237.353 104.469 237.18 103.846 237.18C103.361 237.18 102.979 237.318 102.702 237.595C102.356 237.873 102.183 238.254 102.183 238.739C102.183 239.501 102.46 240.159 103.014 240.713L102.287 241.441C101.524 240.748 101.143 239.847 101.143 238.739C101.143 237.838 101.386 237.145 101.871 236.66C102.425 236.175 103.083 235.932 103.846 235.932C104.469 235.932 104.989 236.071 105.405 236.348C105.89 236.625 106.201 237.041 106.34 237.595C106.548 236.972 106.894 236.487 107.379 236.14C107.864 235.725 108.453 235.517 109.146 235.517C109.701 235.517 110.22 235.655 110.705 235.932C111.19 236.21 111.571 236.591 111.849 237.076C112.195 237.561 112.368 238.15 112.368 238.843ZM100 234.269H13.6303V233.022H100V234.269ZM100 230.528H13.6303V226.786H100V230.528ZM112.368 229.904C112.368 230.597 112.195 231.221 111.849 231.775C111.571 232.329 111.156 232.78 110.601 233.126L109.77 231.983H109.874C110.012 231.983 110.116 231.948 110.186 231.879C110.255 231.879 110.359 231.81 110.497 231.671C110.775 231.463 110.948 231.221 111.017 230.944C111.156 230.597 111.225 230.216 111.225 229.8C111.225 229.454 111.121 229.107 110.913 228.761C110.705 228.484 110.393 228.241 109.978 228.033C109.631 227.826 109.181 227.722 108.627 227.722C107.864 227.722 107.241 227.929 106.756 228.345C106.271 228.761 106.028 229.315 106.028 230.008C106.028 230.355 106.132 230.701 106.34 231.048C106.548 231.394 106.79 231.706 107.068 231.983L106.756 232.814L101.247 232.399V226.89H102.39V231.359L105.509 231.567C105.231 231.013 105.093 230.424 105.093 229.8C105.093 229.177 105.231 228.622 105.509 228.137C105.786 227.583 106.201 227.167 106.756 226.89C107.31 226.613 107.968 226.474 108.731 226.474C109.423 226.474 110.047 226.648 110.601 226.994C111.156 227.271 111.571 227.652 111.849 228.137C112.195 228.692 112.368 229.281 112.368 229.904ZM100 225.539H13.6303L13.6303 221.797H100V225.539ZM100 220.55H13.6303V219.303H100V220.55ZM101.143 221.278C101.143 220.585 101.351 219.961 101.767 219.407C102.183 218.922 102.737 218.541 103.43 218.264C104.123 217.986 104.92 217.848 105.82 217.848C107.968 217.848 109.562 218.16 110.601 218.783C111.71 219.476 112.264 220.412 112.264 221.589C112.264 222.629 111.952 223.495 111.329 224.188L110.29 223.252L110.393 223.148C110.532 223.148 110.636 223.148 110.705 223.148C110.775 223.079 110.844 222.975 110.913 222.837C111.121 222.49 111.225 222.109 111.225 221.693C111.225 220.862 110.844 220.238 110.082 219.823C109.319 219.407 108.349 219.164 107.171 219.095C107.449 219.372 107.657 219.684 107.795 220.03C107.934 220.377 108.003 220.758 108.003 221.174C108.003 221.797 107.864 222.352 107.587 222.837C107.31 223.322 106.929 223.703 106.444 223.98C105.959 224.257 105.37 224.396 104.677 224.396C104.053 224.396 103.464 224.257 102.91 223.98C102.356 223.703 101.94 223.322 101.663 222.837C101.317 222.352 101.143 221.832 101.143 221.278ZM106.964 221.174C106.964 220.689 106.894 220.273 106.756 219.927C106.617 219.58 106.375 219.303 106.028 219.095C104.781 219.095 103.846 219.268 103.222 219.615C102.598 219.961 102.287 220.481 102.287 221.174C102.287 221.797 102.494 222.282 102.91 222.629C103.326 222.975 103.915 223.148 104.677 223.148C105.37 223.148 105.924 222.975 106.34 222.629C106.756 222.213 106.964 221.728 106.964 221.174ZM100 216.808H13.6303V215.561H100V216.808ZM100 213.067H13.6303L13.6303 209.325H100V213.067ZM112.368 212.443C112.368 213.136 112.195 213.76 111.849 214.314C111.571 214.868 111.156 215.319 110.601 215.665L109.77 214.522H109.874C110.012 214.522 110.116 214.487 110.186 214.418C110.255 214.418 110.359 214.349 110.497 214.21C110.775 214.002 110.948 213.76 111.017 213.483C111.156 213.136 111.225 212.755 111.225 212.339C111.225 211.993 111.121 211.646 110.913 211.3C110.705 211.023 110.393 210.78 109.978 210.572C109.631 210.365 109.181 210.261 108.627 210.261C107.864 210.261 107.241 210.468 106.756 210.884C106.271 211.3 106.028 211.854 106.028 212.547C106.028 212.894 106.132 213.24 106.34 213.587C106.548 213.933 106.79 214.245 107.068 214.522L106.756 215.353L101.247 214.938V209.429H102.39V213.898L105.509 214.106C105.231 213.552 105.093 212.963 105.093 212.339C105.093 211.716 105.231 211.161 105.509 210.676C105.786 210.122 106.201 209.706 106.756 209.429C107.31 209.152 107.968 209.013 108.731 209.013C109.423 209.013 110.047 209.187 110.601 209.533C111.156 209.81 111.571 210.191 111.849 210.676C112.195 211.231 112.368 211.82 112.368 212.443ZM112.264 203.713C112.264 204.406 112.16 204.995 111.952 205.48C111.675 205.965 111.329 206.346 110.913 206.623C110.428 206.9 109.908 207.039 109.354 207.039C108.731 207.039 108.142 206.831 107.587 206.415C107.033 205.999 106.617 205.48 106.34 204.856C106.063 205.341 105.716 205.757 105.301 206.103C104.816 206.38 104.331 206.519 103.846 206.519C103.014 206.519 102.356 206.276 101.871 205.791C101.386 205.237 101.143 204.51 101.143 203.609C101.143 202.639 101.386 201.911 101.871 201.426C102.356 200.941 102.979 200.699 103.742 200.699C104.227 200.699 104.712 200.872 105.197 201.218C105.682 201.565 106.063 201.98 106.34 202.465C106.617 201.842 107.033 201.322 107.587 200.906C108.142 200.56 108.731 200.387 109.354 200.387C109.908 200.387 110.393 200.525 110.809 200.803C111.294 201.08 111.675 201.461 111.952 201.946C112.16 202.431 112.264 203.02 112.264 203.713ZM105.924 203.401C105.647 202.985 105.301 202.639 104.885 202.362C104.538 202.084 104.157 201.946 103.742 201.946C103.257 201.946 102.876 202.084 102.598 202.362C102.321 202.708 102.183 203.124 102.183 203.609C102.183 204.163 102.321 204.613 102.598 204.96C102.876 205.237 103.222 205.376 103.638 205.376C104.123 205.376 104.538 205.202 104.885 204.856C105.162 204.579 105.509 204.094 105.924 203.401ZM111.225 203.713C111.225 203.02 111.052 202.5 110.705 202.154C110.359 201.807 109.908 201.634 109.354 201.634C108.8 201.634 108.28 201.842 107.795 202.258C107.379 202.673 107.068 203.228 106.86 203.921C107.068 204.475 107.379 204.925 107.795 205.272C108.28 205.618 108.765 205.791 109.25 205.791C109.804 205.791 110.255 205.584 110.601 205.168C111.017 204.821 111.225 204.336 111.225 203.713ZM102.702 195.294L103.43 197.581L102.702 197.788L101.247 194.982V194.151H112.16V195.294H102.702ZM100 190.617H13.6303V189.37H100V190.617ZM100 184.381H13.6303V183.134H100V184.381ZM112.368 186.46C112.368 187.014 112.23 187.568 111.952 188.123C111.745 188.608 111.467 189.023 111.121 189.37L110.082 188.642L109.978 188.538L110.082 188.434C110.22 188.365 110.324 188.33 110.393 188.33C110.463 188.261 110.567 188.192 110.705 188.123C110.844 187.845 110.982 187.603 111.121 187.395C111.19 187.118 111.225 186.806 111.225 186.46C111.225 185.767 111.052 185.247 110.705 184.901C110.29 184.554 109.735 184.381 109.042 184.381C108.349 184.381 107.83 184.623 107.483 185.108C107.137 185.524 106.964 186.113 106.964 186.875C106.964 187.014 106.964 187.222 106.964 187.499H106.028C106.028 186.46 105.82 185.732 105.405 185.316C104.989 184.97 104.469 184.797 103.846 184.797C103.361 184.797 102.979 184.935 102.702 185.212C102.356 185.49 102.183 185.871 102.183 186.356C102.183 187.118 102.46 187.776 103.014 188.33L102.287 189.058C101.524 188.365 101.143 187.464 101.143 186.356C101.143 185.455 101.386 184.762 101.871 184.277C102.425 183.792 103.083 183.549 103.846 183.549C104.469 183.549 104.989 183.688 105.405 183.965C105.89 184.242 106.201 184.658 106.34 185.212C106.548 184.589 106.894 184.104 107.379 183.757C107.864 183.342 108.453 183.134 109.146 183.134C109.701 183.134 110.22 183.272 110.705 183.549C111.19 183.827 111.571 184.208 111.849 184.693C112.195 185.178 112.368 185.767 112.368 186.46ZM100 181.886H13.6303V180.639H100V181.886ZM100 178.145H13.6303V174.403H100V178.145ZM112.368 177.521C112.368 178.214 112.195 178.838 111.849 179.392C111.571 179.946 111.156 180.397 110.601 180.743L109.77 179.6H109.874C110.012 179.6 110.116 179.565 110.186 179.496C110.255 179.496 110.359 179.427 110.497 179.288C110.775 179.08 110.948 178.838 111.017 178.561C111.156 178.214 111.225 177.833 111.225 177.417C111.225 177.071 111.121 176.724 110.913 176.378C110.705 176.101 110.393 175.858 109.978 175.65C109.631 175.442 109.181 175.339 108.627 175.339C107.864 175.339 107.241 175.546 106.756 175.962C106.271 176.378 106.028 176.932 106.028 177.625C106.028 177.972 106.132 178.318 106.34 178.664C106.548 179.011 106.79 179.323 107.068 179.6L106.756 180.431L101.247 180.016V174.507H102.39V178.976L105.509 179.184C105.231 178.63 105.093 178.041 105.093 177.417C105.093 176.794 105.231 176.239 105.509 175.754C105.786 175.2 106.201 174.784 106.756 174.507C107.31 174.23 107.968 174.091 108.731 174.091C109.423 174.091 110.047 174.265 110.601 174.611C111.156 174.888 111.571 175.269 111.849 175.754C112.195 176.309 112.368 176.898 112.368 177.521ZM100 173.156H13.6303L13.6303 169.414H100V173.156ZM100 168.167H13.6303V166.92H100V168.167ZM101.143 168.895C101.143 168.202 101.351 167.578 101.767 167.024C102.183 166.539 102.737 166.158 103.43 165.881C104.123 165.603 104.92 165.465 105.82 165.465C107.968 165.465 109.562 165.777 110.601 166.4C111.71 167.093 112.264 168.028 112.264 169.206C112.264 170.246 111.952 171.112 111.329 171.805L110.29 170.869L110.393 170.765C110.532 170.765 110.636 170.765 110.705 170.765C110.775 170.696 110.844 170.592 110.913 170.454C111.121 170.107 111.225 169.726 111.225 169.31C111.225 168.479 110.844 167.855 110.082 167.44C109.319 167.024 108.349 166.781 107.171 166.712C107.449 166.989 107.657 167.301 107.795 167.647C107.934 167.994 108.003 168.375 108.003 168.791C108.003 169.414 107.864 169.969 107.587 170.454C107.31 170.939 106.929 171.32 106.444 171.597C105.959 171.874 105.37 172.013 104.677 172.013C104.053 172.013 103.464 171.874 102.91 171.597C102.356 171.32 101.94 170.939 101.663 170.454C101.317 169.969 101.143 169.449 101.143 168.895ZM106.964 168.791C106.964 168.306 106.894 167.89 106.756 167.543C106.617 167.197 106.375 166.92 106.028 166.712C104.781 166.712 103.846 166.885 103.222 167.232C102.598 167.578 102.287 168.098 102.287 168.791C102.287 169.414 102.494 169.899 102.91 170.246C103.326 170.592 103.915 170.765 104.677 170.765C105.37 170.765 105.924 170.592 106.34 170.246C106.756 169.83 106.964 169.345 106.964 168.791ZM112.264 160.06C112.264 160.753 112.16 161.342 111.952 161.827C111.675 162.312 111.329 162.693 110.913 162.97C110.428 163.247 109.908 163.386 109.354 163.386C108.731 163.386 108.142 163.178 107.587 162.762C107.033 162.347 106.617 161.827 106.34 161.203C106.063 161.688 105.716 162.104 105.301 162.451C104.816 162.728 104.331 162.866 103.846 162.866C103.014 162.866 102.356 162.624 101.871 162.139C101.386 161.585 101.143 160.857 101.143 159.956C101.143 158.986 101.386 158.259 101.871 157.774C102.356 157.289 102.979 157.046 103.742 157.046C104.227 157.046 104.712 157.219 105.197 157.566C105.682 157.912 106.063 158.328 106.34 158.813C106.617 158.189 107.033 157.67 107.587 157.254C108.142 156.907 108.731 156.734 109.354 156.734C109.908 156.734 110.393 156.873 110.809 157.15C111.294 157.427 111.675 157.808 111.952 158.293C112.16 158.778 112.264 159.367 112.264 160.06ZM105.924 159.748C105.647 159.333 105.301 158.986 104.885 158.709C104.538 158.432 104.157 158.293 103.742 158.293C103.257 158.293 102.876 158.432 102.598 158.709C102.321 159.055 102.183 159.471 102.183 159.956C102.183 160.511 102.321 160.961 102.598 161.307C102.876 161.585 103.222 161.723 103.638 161.723C104.123 161.723 104.538 161.55 104.885 161.203C105.162 160.926 105.509 160.441 105.924 159.748ZM111.225 160.06C111.225 159.367 111.052 158.848 110.705 158.501C110.359 158.155 109.908 157.981 109.354 157.981C108.8 157.981 108.28 158.189 107.795 158.605C107.379 159.021 107.068 159.575 106.86 160.268C107.068 160.822 107.379 161.273 107.795 161.619C108.28 161.966 108.765 162.139 109.25 162.139C109.804 162.139 110.255 161.931 110.601 161.515C111.017 161.169 111.225 160.684 111.225 160.06ZM100 155.695H13.6303V154.448H100V155.695ZM100 149.459H13.6303V148.212H100V149.459ZM112.368 151.538C112.368 152.092 112.23 152.646 111.952 153.2C111.745 153.686 111.467 154.101 111.121 154.448L110.082 153.72L109.978 153.616L110.082 153.512C110.22 153.443 110.324 153.408 110.393 153.408C110.463 153.339 110.567 153.27 110.705 153.2C110.844 152.923 110.982 152.681 111.121 152.473C111.19 152.196 111.225 151.884 111.225 151.538C111.225 150.845 111.052 150.325 110.705 149.979C110.29 149.632 109.735 149.459 109.042 149.459C108.349 149.459 107.83 149.701 107.483 150.186C107.137 150.602 106.964 151.191 106.964 151.953C106.964 152.092 106.964 152.3 106.964 152.577H106.028C106.028 151.538 105.82 150.81 105.405 150.394C104.989 150.048 104.469 149.875 103.846 149.875C103.361 149.875 102.979 150.013 102.702 150.29C102.356 150.567 102.183 150.949 102.183 151.434C102.183 152.196 102.46 152.854 103.014 153.408L102.287 154.136C101.524 153.443 101.143 152.542 101.143 151.434C101.143 150.533 101.386 149.84 101.871 149.355C102.425 148.87 103.083 148.627 103.846 148.627C104.469 148.627 104.989 148.766 105.405 149.043C105.89 149.32 106.201 149.736 106.34 150.29C106.548 149.667 106.894 149.182 107.379 148.835C107.864 148.419 108.453 148.212 109.146 148.212C109.701 148.212 110.22 148.35 110.705 148.627C111.19 148.905 111.571 149.286 111.849 149.771C112.195 150.256 112.368 150.845 112.368 151.538ZM102.702 142.911L103.43 145.198L102.702 145.405L101.247 142.599V141.768H112.16V142.911H102.702ZM100 138.234H13.6303V136.987H100V138.234ZM100 134.492H13.6303L13.6303 130.751H100V134.492ZM112.368 133.869C112.368 134.562 112.195 135.185 111.849 135.739C111.571 136.294 111.156 136.744 110.601 137.091L109.77 135.947H109.874C110.012 135.947 110.116 135.913 110.186 135.843C110.255 135.843 110.359 135.774 110.497 135.636C110.775 135.428 110.948 135.185 111.017 134.908C111.156 134.562 111.225 134.18 111.225 133.765C111.225 133.418 111.121 133.072 110.913 132.725C110.705 132.448 110.393 132.206 109.978 131.998C109.631 131.79 109.181 131.686 108.627 131.686C107.864 131.686 107.241 131.894 106.756 132.31C106.271 132.725 106.028 133.28 106.028 133.973C106.028 134.319 106.132 134.665 106.34 135.012C106.548 135.358 106.79 135.67 107.068 135.947L106.756 136.779L101.247 136.363V130.855H102.39V135.324L105.509 135.532C105.231 134.977 105.093 134.388 105.093 133.765C105.093 133.141 105.231 132.587 105.509 132.102C105.786 131.547 106.201 131.132 106.756 130.855C107.31 130.577 107.968 130.439 108.731 130.439C109.423 130.439 110.047 130.612 110.601 130.958C111.156 131.236 111.571 131.617 111.849 132.102C112.195 132.656 112.368 133.245 112.368 133.869ZM101.143 125.138C101.143 124.099 101.663 123.267 102.702 122.644C103.672 122.089 105.024 121.812 106.756 121.812C108.557 121.812 109.943 122.089 110.913 122.644C111.883 123.198 112.368 124.029 112.368 125.138C112.368 126.247 111.883 127.078 110.913 127.633C109.943 128.187 108.557 128.464 106.756 128.464C105.024 128.464 103.672 128.187 102.702 127.633C101.663 127.009 101.143 126.177 101.143 125.138ZM102.287 125.138C102.287 125.831 102.668 126.351 103.43 126.697C104.261 127.044 105.37 127.217 106.756 127.217C107.518 127.217 108.176 127.182 108.731 127.113L103.95 123.371C103.395 123.579 102.979 123.822 102.702 124.099C102.425 124.376 102.287 124.722 102.287 125.138ZM111.225 125.138C111.225 124.445 110.844 123.926 110.082 123.579C109.319 123.233 108.211 123.059 106.756 123.059C106.063 123.059 105.474 123.094 104.989 123.163L109.666 126.801C110.705 126.455 111.225 125.9 111.225 125.138ZM100 120.773L13.6303 120.773V119.526L100 119.526V120.773ZM100 118.278L13.6303 118.278V114.537H100V118.278ZM109.458 115.264V119.941H108.523L101.247 114.953V113.913H108.419V112.562H109.458V113.913H112.16V115.264H109.458ZM108.419 115.264H103.43L108.419 118.486V115.264ZM100 112.042H13.6303V110.795H100V112.042ZM100 108.301H13.6303L13.6303 104.559H100V108.301ZM112.368 107.677C112.368 108.37 112.195 108.994 111.849 109.548C111.571 110.102 111.156 110.553 110.601 110.899L109.77 109.756H109.874C110.012 109.756 110.116 109.721 110.186 109.652C110.255 109.652 110.359 109.583 110.497 109.444C110.775 109.236 110.948 108.994 111.017 108.716C111.156 108.37 111.225 107.989 111.225 107.573C111.225 107.227 111.121 106.88 110.913 106.534C110.705 106.257 110.393 106.014 109.978 105.806C109.631 105.598 109.181 105.494 108.627 105.494C107.864 105.494 107.241 105.702 106.756 106.118C106.271 106.534 106.028 107.088 106.028 107.781C106.028 108.128 106.132 108.474 106.34 108.82C106.548 109.167 106.79 109.479 107.068 109.756L106.756 110.587L101.247 110.172V104.663H102.39V109.132L105.509 109.34C105.231 108.786 105.093 108.197 105.093 107.573C105.093 106.95 105.231 106.395 105.509 105.91C105.786 105.356 106.201 104.94 106.756 104.663C107.31 104.386 107.968 104.247 108.731 104.247C109.423 104.247 110.047 104.421 110.601 104.767C111.156 105.044 111.571 105.425 111.849 105.91C112.195 106.465 112.368 107.054 112.368 107.677ZM100 103.208H13.6303V102.065H100V103.208ZM100 99.4663H13.6303V98.323H100V99.4663ZM112.264 98.9466C112.264 99.6395 112.16 100.228 111.952 100.713C111.675 101.199 111.329 101.58 110.913 101.857C110.428 102.134 109.908 102.273 109.354 102.273C108.731 102.273 108.142 102.065 107.587 101.649C107.033 101.233 106.617 100.713 106.34 100.09C106.063 100.575 105.716 100.991 105.301 101.337C104.816 101.614 104.331 101.753 103.846 101.753C103.014 101.753 102.356 101.51 101.871 101.025C101.386 100.471 101.143 99.7434 101.143 98.8427C101.143 97.8726 101.386 97.1451 101.871 96.66C102.356 96.175 102.979 95.9325 103.742 95.9325C104.227 95.9325 104.712 96.1057 105.197 96.4522C105.682 96.7986 106.063 97.2144 106.34 97.6994C106.617 97.0758 107.033 96.5561 107.587 96.1404C108.142 95.7939 108.731 95.6207 109.354 95.6207C109.908 95.6207 110.393 95.7593 110.809 96.0364C111.294 96.3136 111.675 96.6947 111.952 97.1797C112.16 97.6647 112.264 98.2537 112.264 98.9466ZM105.924 98.6348C105.647 98.2191 105.301 97.8726 104.885 97.5955C104.538 97.3183 104.157 97.1797 103.742 97.1797C103.257 97.1797 102.876 97.3183 102.598 97.5955C102.321 97.9419 102.183 98.3576 102.183 98.8427C102.183 99.397 102.321 99.8474 102.598 100.194C102.876 100.471 103.222 100.61 103.638 100.61C104.123 100.61 104.538 100.436 104.885 100.09C105.162 99.8127 105.509 99.3277 105.924 98.6348ZM111.225 98.9466C111.225 98.2537 111.052 97.734 110.705 97.3876C110.359 97.0411 109.908 96.8679 109.354 96.8679C108.8 96.8679 108.28 97.0758 107.795 97.4915C107.379 97.9073 107.068 98.4616 106.86 99.1545C107.068 99.7088 107.379 100.159 107.795 100.506C108.28 100.852 108.765 101.025 109.25 101.025C109.804 101.025 110.255 100.817 110.601 100.402C111.017 100.055 111.225 99.5702 111.225 98.9466ZM112.264 90.1122C112.264 90.8051 112.16 91.394 111.952 91.8791C111.675 92.3641 111.329 92.7452 110.913 93.0223C110.428 93.2995 109.908 93.4381 109.354 93.4381C108.731 93.4381 108.142 93.2302 107.587 92.8145C107.033 92.3987 106.617 91.8791 106.34 91.2554C106.063 91.7405 105.716 92.1562 105.301 92.5027C104.816 92.7798 104.331 92.9184 103.846 92.9184C103.014 92.9184 102.356 92.6759 101.871 92.1909C101.386 91.6365 101.143 90.909 101.143 90.0082C101.143 89.0382 101.386 88.3106 101.871 87.8256C102.356 87.3406 102.979 87.0981 103.742 87.0981C104.227 87.0981 104.712 87.2713 105.197 87.6177C105.682 87.9642 106.063 88.3799 106.34 88.8649C106.617 88.2413 107.033 87.7217 107.587 87.3059C108.142 86.9595 108.731 86.7863 109.354 86.7863C109.908 86.7863 110.393 86.9248 110.809 87.202C111.294 87.4792 111.675 87.8602 111.952 88.3453C112.16 88.8303 112.264 89.4193 112.264 90.1122ZM105.924 89.8004C105.647 89.3846 105.301 89.0382 104.885 88.761C104.538 88.4839 104.157 88.3453 103.742 88.3453C103.257 88.3453 102.876 88.4839 102.598 88.761C102.321 89.1075 102.183 89.5232 102.183 90.0082C102.183 90.5625 102.321 91.0129 102.598 91.3594C102.876 91.6365 103.222 91.7751 103.638 91.7751C104.123 91.7751 104.538 91.6019 104.885 91.2554C105.162 90.9783 105.509 90.4933 105.924 89.8004ZM111.225 90.1122C111.225 89.4193 111.052 88.8996 110.705 88.5531C110.359 88.2067 109.908 88.0335 109.354 88.0335C108.8 88.0335 108.28 88.2413 107.795 88.6571C107.379 89.0728 107.068 89.6271 106.86 90.32C107.068 90.8744 107.379 91.3247 107.795 91.6712C108.28 92.0176 108.765 92.1909 109.25 92.1909C109.804 92.1909 110.255 91.983 110.601 91.5672C111.017 91.2208 111.225 90.7358 111.225 90.1122ZM100 85.7469H13.6303V84.4997H100V85.7469ZM100 79.5108H13.6303V78.2636H100V79.5108ZM112.368 81.5895C112.368 82.1438 112.23 82.6982 111.952 83.2525C111.745 83.7375 111.467 84.1532 111.121 84.4997L110.082 83.7721L109.978 83.6682L110.082 83.5643C110.22 83.495 110.324 83.4603 110.393 83.4603C110.463 83.3911 110.567 83.3218 110.705 83.2525C110.844 82.9753 110.982 82.7328 111.121 82.5249C111.19 82.2478 111.225 81.936 111.225 81.5895C111.225 80.8966 111.052 80.3769 110.705 80.0305C110.29 79.684 109.735 79.5108 109.042 79.5108C108.349 79.5108 107.83 79.7533 107.483 80.2384C107.137 80.6541 106.964 81.2431 106.964 82.0053C106.964 82.1438 106.964 82.3517 106.964 82.6289H106.028C106.028 81.5895 105.82 80.862 105.405 80.4462C104.989 80.0998 104.469 79.9266 103.846 79.9266C103.361 79.9266 102.979 80.0651 102.702 80.3423C102.356 80.6195 102.183 81.0006 102.183 81.4856C102.183 82.2478 102.46 82.906 103.014 83.4603L102.287 84.1879C101.524 83.495 101.143 82.5942 101.143 81.4856C101.143 80.5848 101.386 79.8919 101.871 79.4069C102.425 78.9219 103.083 78.6793 103.846 78.6793C104.469 78.6793 104.989 78.8179 105.405 79.0951C105.89 79.3722 106.201 79.788 106.34 80.3423C106.548 79.7187 106.894 79.2337 107.379 78.8872C107.864 78.4715 108.453 78.2636 109.146 78.2636C109.701 78.2636 110.22 78.4022 110.705 78.6793C111.19 78.9565 111.571 79.3376 111.849 79.8226C112.195 80.3077 112.368 80.8966 112.368 81.5895ZM100 77.0164H13.6303V75.7692H100V77.0164ZM100 73.2748H13.6303L13.6303 69.5331H100V73.2748ZM112.368 72.6511C112.368 73.344 112.195 73.9677 111.849 74.522C111.571 75.0763 111.156 75.5267 110.601 75.8731L109.77 74.7298H109.874C110.012 74.7298 110.116 74.6952 110.186 74.6259C110.255 74.6259 110.359 74.5566 110.497 74.418C110.775 74.2102 110.948 73.9677 111.017 73.6905C111.156 73.344 111.225 72.963 111.225 72.5472C111.225 72.2008 111.121 71.8543 110.913 71.5079C110.705 71.2307 110.393 70.9882 109.978 70.7803C109.631 70.5725 109.181 70.4685 108.627 70.4685C107.864 70.4685 107.241 70.6764 106.756 71.0921C106.271 71.5079 106.028 72.0622 106.028 72.7551C106.028 73.1015 106.132 73.448 106.34 73.7944C106.548 74.1409 106.79 74.4527 107.068 74.7298L106.756 75.5613L101.247 75.1456V69.637H102.39V74.1062L105.509 74.3141C105.231 73.7598 105.093 73.1708 105.093 72.5472C105.093 71.9236 105.231 71.3693 105.509 70.8843C105.786 70.3299 106.201 69.9142 106.756 69.637C107.31 69.3599 107.968 69.2213 108.731 69.2213C109.423 69.2213 110.047 69.3945 110.601 69.741C111.156 70.0181 111.571 70.3992 111.849 70.8843C112.195 71.4386 112.368 72.0275 112.368 72.6511ZM100 68.2859H13.6303V67.0387H100V68.2859ZM100 62.0498H13.6303V60.8026H100V62.0498ZM112.368 64.1285C112.368 64.6828 112.23 65.2371 111.952 65.7915C111.745 66.2765 111.467 66.6922 111.121 67.0387L110.082 66.3111L109.978 66.2072L110.082 66.1033C110.22 66.034 110.324 65.9993 110.393 65.9993C110.463 65.93 110.567 65.8607 110.705 65.7915C110.844 65.5143 110.982 65.2718 111.121 65.0639C111.19 64.7868 111.225 64.475 111.225 64.1285C111.225 63.4356 111.052 62.9159 110.705 62.5695C110.29 62.223 109.735 62.0498 109.042 62.0498C108.349 62.0498 107.83 62.2923 107.483 62.7774C107.137 63.1931 106.964 63.7821 106.964 64.5442C106.964 64.6828 106.964 64.8907 106.964 65.1678H106.028C106.028 64.1285 105.82 63.401 105.405 62.9852C104.989 62.6388 104.469 62.4655 103.846 62.4655C103.361 62.4655 102.979 62.6041 102.702 62.8813C102.356 63.1584 102.183 63.5395 102.183 64.0246C102.183 64.7868 102.46 65.445 103.014 65.9993L102.287 66.7269C101.524 66.034 101.143 65.1332 101.143 64.0246C101.143 63.1238 101.386 62.4309 101.871 61.9459C102.425 61.4608 103.083 61.2183 103.846 61.2183C104.469 61.2183 104.989 61.3569 105.405 61.6341C105.89 61.9112 106.201 62.327 106.34 62.8813C106.548 62.2577 106.894 61.7727 107.379 61.4262C107.864 61.0105 108.453 60.8026 109.146 60.8026C109.701 60.8026 110.22 60.9412 110.705 61.2183C111.19 61.4955 111.571 61.8766 111.849 62.3616C112.195 62.8466 112.368 63.4356 112.368 64.1285ZM101.143 55.1901C101.143 54.1508 101.663 53.3193 102.702 52.6957C103.672 52.1414 105.024 51.8642 106.756 51.8642C108.557 51.8642 109.943 52.1414 110.913 52.6957C111.883 53.25 112.368 54.0815 112.368 55.1901C112.368 56.2988 111.883 57.1302 110.913 57.6846C109.943 58.2389 108.557 58.516 106.756 58.516C105.024 58.516 103.672 58.2389 102.702 57.6846C101.663 57.0609 101.143 56.2295 101.143 55.1901ZM102.287 55.1901C102.287 55.883 102.668 56.4027 103.43 56.7491C104.261 57.0956 105.37 57.2688 106.756 57.2688C107.518 57.2688 108.176 57.2342 108.731 57.1649L103.95 53.4232C103.395 53.6311 102.979 53.8736 102.702 54.1508C102.425 54.4279 102.287 54.7744 102.287 55.1901ZM111.225 55.1901C111.225 54.4972 110.844 53.9775 110.082 53.6311C109.319 53.2847 108.211 53.1114 106.756 53.1114C106.063 53.1114 105.474 53.1461 104.989 53.2154L109.666 56.8531C110.705 56.5066 111.225 55.9523 111.225 55.1901ZM100 50.8249H13.6303V49.5777H100V50.8249ZM100 47.0832H13.6303L13.6303 43.3416H100V47.0832ZM112.368 46.4596C112.368 47.1525 112.195 47.7761 111.849 48.3304C111.571 48.8848 111.156 49.3351 110.601 49.6816L109.77 48.5383H109.874C110.012 48.5383 110.116 48.5037 110.186 48.4344C110.255 48.4344 110.359 48.3651 110.497 48.2265C110.775 48.0186 110.948 47.7761 111.017 47.499C111.156 47.1525 111.225 46.7714 111.225 46.3557C111.225 46.0092 111.121 45.6628 110.913 45.3163C110.705 45.0392 110.393 44.7967 109.978 44.5888C109.631 44.3809 109.181 44.277 108.627 44.277C107.864 44.277 107.241 44.4849 106.756 44.9006C106.271 45.3163 106.028 45.8707 106.028 46.5636C106.028 46.91 106.132 47.2565 106.34 47.6029C106.548 47.9494 106.79 48.2612 107.068 48.5383L106.756 49.3698L101.247 48.9541V43.4455H102.39V47.9147L105.509 48.1226C105.231 47.5683 105.093 46.9793 105.093 46.3557C105.093 45.7321 105.231 45.1778 105.509 44.6927C105.786 44.1384 106.201 43.7227 106.756 43.4455C107.31 43.1684 107.968 43.0298 108.731 43.0298C109.423 43.0298 110.047 43.203 110.601 43.5495C111.156 43.8266 111.571 44.2077 111.849 44.6927C112.195 45.2471 112.368 45.836 112.368 46.4596ZM100 42.0944H13.6303V38.3527H100V42.0944ZM100 37.1055H13.6303V35.8583H100V37.1055ZM101.143 37.833C101.143 37.1401 101.351 36.5165 101.767 35.9622C102.183 35.4772 102.737 35.0961 103.43 34.8189C104.123 34.5418 104.92 34.4032 105.82 34.4032C107.968 34.4032 109.562 34.715 110.601 35.3386C111.71 36.0315 112.264 36.9669 112.264 38.1448C112.264 39.1842 111.952 40.0503 111.329 40.7432L110.29 39.8078L110.393 39.7039C110.532 39.7039 110.636 39.7039 110.705 39.7039C110.775 39.6346 110.844 39.5306 110.913 39.3921C111.121 39.0456 111.225 38.6645 111.225 38.2488C111.225 37.4173 110.844 36.7937 110.082 36.378C109.319 35.9622 108.349 35.7197 107.171 35.6504C107.449 35.9276 107.657 36.2394 107.795 36.5858C107.934 36.9323 108.003 37.3134 108.003 37.7291C108.003 38.3527 107.864 38.907 107.587 39.3921C107.31 39.8771 106.929 40.2582 106.444 40.5353C105.959 40.8125 105.37 40.9511 104.677 40.9511C104.053 40.9511 103.464 40.8125 102.91 40.5353C102.356 40.2582 101.94 39.8771 101.663 39.3921C101.317 38.907 101.143 38.3874 101.143 37.833ZM106.964 37.7291C106.964 37.2441 106.894 36.8283 106.756 36.4819C106.617 36.1354 106.375 35.8583 106.028 35.6504C104.781 35.6504 103.846 35.8236 103.222 36.1701C102.598 36.5165 102.287 37.0362 102.287 37.7291C102.287 38.3527 102.494 38.8377 102.91 39.1842C103.326 39.5306 103.915 39.7039 104.677 39.7039C105.37 39.7039 105.924 39.5306 106.34 39.1842C106.756 38.7685 106.964 38.2834 106.964 37.7291ZM100 33.3639H13.6303V32.1166H100V33.3639ZM100 29.6222H13.6303V25.8806H100V29.6222ZM112.368 28.9986C112.368 29.6915 112.195 30.3151 111.849 30.8694C111.571 31.4237 111.156 31.8741 110.601 32.2206L109.77 31.0773H109.874C110.012 31.0773 110.116 31.0427 110.186 30.9734C110.255 30.9734 110.359 30.9041 110.497 30.7655C110.775 30.5576 110.948 30.3151 111.017 30.038C111.156 29.6915 111.225 29.3104 111.225 28.8947C111.225 28.5482 111.121 28.2018 110.913 27.8553C110.705 27.5782 110.393 27.3357 109.978 27.1278C109.631 26.9199 109.181 26.816 108.627 26.816C107.864 26.816 107.241 27.0238 106.756 27.4396C106.271 27.8553 106.028 28.4096 106.028 29.1025C106.028 29.449 106.132 29.7954 106.34 30.1419C106.548 30.4883 106.79 30.8001 107.068 31.0773L106.756 31.9088L101.247 31.493V25.9845H102.39V30.4537L105.509 30.6616C105.231 30.1072 105.093 29.5183 105.093 28.8947C105.093 28.2711 105.231 27.7167 105.509 27.2317C105.786 26.6774 106.201 26.2617 106.756 25.9845C107.31 25.7073 107.968 25.5688 108.731 25.5688C109.423 25.5688 110.047 25.742 110.601 26.0884C111.156 26.3656 111.571 26.7467 111.849 27.2317C112.195 27.786 112.368 28.375 112.368 28.9986ZM100 24.6333H13.6303V20.8917H100V24.6333ZM100 19.6445H13.6303V18.3973H100V19.6445ZM101.143 20.372C101.143 19.6791 101.351 19.0555 101.767 18.5012C102.183 18.0162 102.737 17.6351 103.43 17.3579C104.123 17.0808 104.92 16.9422 105.82 16.9422C107.968 16.9422 109.562 17.254 110.601 17.8776C111.71 18.5705 112.264 19.5059 112.264 20.6838C112.264 21.7232 111.952 22.5893 111.329 23.2822L110.29 22.3468L110.393 22.2429C110.532 22.2429 110.636 22.2429 110.705 22.2429C110.775 22.1736 110.844 22.0696 110.913 21.931C111.121 21.5846 111.225 21.2035 111.225 20.7878C111.225 19.9563 110.844 19.3327 110.082 18.9169C109.319 18.5012 108.349 18.2587 107.171 18.1894C107.449 18.4666 107.657 18.7784 107.795 19.1248C107.934 19.4713 108.003 19.8524 108.003 20.2681C108.003 20.8917 107.864 21.446 107.587 21.931C107.31 22.4161 106.929 22.7972 106.444 23.0743C105.959 23.3515 105.37 23.4901 104.677 23.4901C104.053 23.4901 103.464 23.3515 102.91 23.0743C102.356 22.7972 101.94 22.4161 101.663 21.931C101.317 21.446 101.143 20.9263 101.143 20.372ZM106.964 20.2681C106.964 19.7831 106.894 19.3673 106.756 19.0209C106.617 18.6744 106.375 18.3973 106.028 18.1894C104.781 18.1894 103.846 18.3626 103.222 18.7091C102.598 19.0555 102.287 19.5752 102.287 20.2681C102.287 20.8917 102.494 21.3767 102.91 21.7232C103.326 22.0696 103.915 22.2429 104.677 22.2429C105.37 22.2429 105.924 22.0696 106.34 21.7232C106.756 21.3074 106.964 20.8224 106.964 20.2681Z" fill="black"/>
</svg>
