<svg width="123" height="250" viewBox="0 0 123 250" fill="none" xmlns="http://www.w3.org/2000/svg">
<path fill-rule="evenodd" clip-rule="evenodd" d="M123 0H0V250H123V0ZM13.6303 236H100V234.753H13.6303V236ZM13.6303 229.764H100V228.517H13.6303V229.764ZM111.952 233.506C112.23 232.951 112.368 232.397 112.368 231.843C112.368 231.15 112.195 230.561 111.849 230.076C111.571 229.591 111.19 229.21 110.705 228.932C110.22 228.655 109.701 228.517 109.146 228.517C108.453 228.517 107.864 228.725 107.379 229.14C106.894 229.487 106.548 229.972 106.34 230.595C106.201 230.041 105.89 229.625 105.405 229.348C104.989 229.071 104.469 228.932 103.846 228.932C103.083 228.932 102.425 229.175 101.871 229.66C101.386 230.145 101.143 230.838 101.143 231.739C101.143 232.847 101.524 233.748 102.287 234.441L103.014 233.713C102.46 233.159 102.183 232.501 102.183 231.739C102.183 231.254 102.356 230.873 102.702 230.595C102.979 230.318 103.361 230.18 103.846 230.18C104.469 230.18 104.989 230.353 105.405 230.699C105.82 231.115 106.028 231.843 106.028 232.882H106.964V232.258C106.964 231.496 107.137 230.907 107.483 230.491C107.83 230.006 108.349 229.764 109.042 229.764C109.735 229.764 110.29 229.937 110.705 230.284C111.052 230.63 111.225 231.15 111.225 231.843C111.225 232.189 111.19 232.501 111.121 232.778C110.982 232.986 110.844 233.228 110.705 233.506C110.567 233.575 110.463 233.644 110.393 233.713C110.324 233.713 110.22 233.748 110.082 233.817L109.978 233.921L110.082 234.025L111.121 234.753C111.467 234.406 111.745 233.991 111.952 233.506ZM13.6303 227.269H100V226.022H13.6303V227.269ZM13.6303 223.528H100V219.786H13.6303V223.528ZM111.849 224.775C112.195 224.221 112.368 223.597 112.368 222.904C112.368 222.281 112.195 221.692 111.849 221.137C111.571 220.652 111.156 220.271 110.601 219.994C110.047 219.648 109.423 219.474 108.731 219.474C107.968 219.474 107.31 219.613 106.756 219.89C106.201 220.167 105.786 220.583 105.509 221.137C105.231 221.622 105.093 222.177 105.093 222.8C105.093 223.424 105.231 224.013 105.509 224.567L102.39 224.359V219.89H101.247V225.399L106.756 225.814L107.068 224.983C106.79 224.706 106.548 224.394 106.34 224.048C106.132 223.701 106.028 223.355 106.028 223.008C106.028 222.315 106.271 221.761 106.756 221.345C107.241 220.929 107.864 220.722 108.627 220.722C109.181 220.722 109.631 220.826 109.978 221.033C110.393 221.241 110.705 221.484 110.913 221.761C111.121 222.107 111.225 222.454 111.225 222.8C111.225 223.216 111.156 223.597 111.017 223.944C110.948 224.221 110.775 224.463 110.497 224.671C110.359 224.81 110.255 224.879 110.186 224.879C110.116 224.948 110.012 224.983 109.874 224.983H109.77L110.601 226.126C111.156 225.78 111.571 225.329 111.849 224.775ZM13.6303 218.539H100V214.797H13.6303V218.539ZM13.6303 213.55H100V212.303H13.6303V213.55ZM101.767 212.407C101.351 212.961 101.143 213.585 101.143 214.278C101.143 214.832 101.317 215.352 101.663 215.837C101.94 216.322 102.356 216.703 102.91 216.98C103.464 217.257 104.053 217.396 104.677 217.396C105.37 217.396 105.959 217.257 106.444 216.98C106.929 216.703 107.31 216.322 107.587 215.837C107.864 215.352 108.003 214.797 108.003 214.174C108.003 213.758 107.934 213.377 107.795 213.03C107.657 212.684 107.449 212.372 107.171 212.095C108.349 212.164 109.319 212.407 110.082 212.823C110.844 213.238 111.225 213.862 111.225 214.693C111.225 215.109 111.121 215.49 110.913 215.837C110.844 215.975 110.775 216.079 110.705 216.148H110.393L110.29 216.252L111.329 217.188C111.952 216.495 112.264 215.629 112.264 214.589C112.264 213.412 111.71 212.476 110.601 211.783C109.562 211.16 107.968 210.848 105.82 210.848C104.92 210.848 104.123 210.986 103.43 211.264C102.737 211.541 102.183 211.922 101.767 212.407ZM106.756 212.927C106.894 213.273 106.964 213.689 106.964 214.174C106.964 214.728 106.756 215.213 106.34 215.629C105.924 215.975 105.37 216.148 104.677 216.148C103.915 216.148 103.326 215.975 102.91 215.629C102.494 215.282 102.287 214.797 102.287 214.174C102.287 213.481 102.598 212.961 103.222 212.615C103.846 212.268 104.781 212.095 106.028 212.095C106.375 212.303 106.617 212.58 106.756 212.927ZM13.6303 209.808H100V208.561H13.6303V209.808ZM13.6303 206.067H100V202.325H13.6303V206.067ZM111.849 207.314C112.195 206.76 112.368 206.136 112.368 205.443C112.368 204.82 112.195 204.231 111.849 203.676C111.571 203.191 111.156 202.81 110.601 202.533C110.047 202.187 109.423 202.013 108.731 202.013C107.968 202.013 107.31 202.152 106.756 202.429C106.201 202.706 105.786 203.122 105.509 203.676C105.231 204.161 105.093 204.716 105.093 205.339C105.093 205.963 105.231 206.552 105.509 207.106L102.39 206.898V202.429H101.247V207.938L106.756 208.353L107.068 207.522C106.79 207.245 106.548 206.933 106.34 206.587C106.132 206.24 106.028 205.894 106.028 205.547C106.028 204.854 106.271 204.3 106.756 203.884C107.241 203.468 107.864 203.261 108.627 203.261C109.181 203.261 109.631 203.365 109.978 203.572C110.393 203.78 110.705 204.023 110.913 204.3C111.121 204.646 111.225 204.993 111.225 205.339C111.225 205.755 111.156 206.136 111.017 206.483C110.948 206.76 110.775 207.002 110.497 207.21C110.359 207.349 110.255 207.418 110.186 207.418C110.116 207.487 110.012 207.522 109.874 207.522H109.77L110.601 208.665C111.156 208.319 111.571 207.868 111.849 207.314ZM111.952 198.48C112.16 197.995 112.264 197.406 112.264 196.713C112.264 196.02 112.16 195.431 111.952 194.946C111.675 194.461 111.294 194.08 110.809 193.803C110.393 193.525 109.908 193.387 109.354 193.387C108.731 193.387 108.142 193.56 107.587 193.906C107.033 194.322 106.617 194.842 106.34 195.465C106.063 194.98 105.682 194.565 105.197 194.218C104.712 193.872 104.227 193.699 103.742 193.699C102.979 193.699 102.356 193.941 101.871 194.426C101.386 194.911 101.143 195.639 101.143 196.609C101.143 197.51 101.386 198.237 101.871 198.791C102.356 199.276 103.014 199.519 103.846 199.519C104.331 199.519 104.816 199.38 105.301 199.103C105.716 198.757 106.063 198.341 106.34 197.856C106.617 198.48 107.033 198.999 107.587 199.415C108.142 199.831 108.731 200.039 109.354 200.039C109.908 200.039 110.428 199.9 110.913 199.623C111.329 199.346 111.675 198.965 111.952 198.48ZM104.885 195.362C105.301 195.639 105.647 195.985 105.924 196.401C105.509 197.094 105.162 197.579 104.885 197.856C104.538 198.202 104.123 198.376 103.638 198.376C103.222 198.376 102.876 198.237 102.598 197.96C102.321 197.613 102.183 197.163 102.183 196.609C102.183 196.124 102.321 195.708 102.598 195.362C102.876 195.084 103.257 194.946 103.742 194.946C104.157 194.946 104.538 195.084 104.885 195.362ZM110.705 195.154C111.052 195.5 111.225 196.02 111.225 196.713C111.225 197.336 111.017 197.821 110.601 198.168C110.255 198.584 109.804 198.791 109.25 198.791C108.765 198.791 108.28 198.618 107.795 198.272C107.379 197.925 107.068 197.475 106.86 196.921C107.068 196.228 107.379 195.673 107.795 195.258C108.28 194.842 108.8 194.634 109.354 194.634C109.908 194.634 110.359 194.807 110.705 195.154ZM103.43 190.581L102.702 188.294H112.16V187.151H101.247V187.982L102.702 190.788L103.43 190.581ZM13.6303 183.617H100V182.37H13.6303V183.617ZM13.6303 177.381H100V176.134H13.6303V177.381ZM111.952 181.123C112.23 180.568 112.368 180.014 112.368 179.46C112.368 178.767 112.195 178.178 111.849 177.693C111.571 177.208 111.19 176.827 110.705 176.549C110.22 176.272 109.701 176.134 109.146 176.134C108.453 176.134 107.864 176.342 107.379 176.757C106.894 177.104 106.548 177.589 106.34 178.212C106.201 177.658 105.89 177.242 105.405 176.965C104.989 176.688 104.469 176.549 103.846 176.549C103.083 176.549 102.425 176.792 101.871 177.277C101.386 177.762 101.143 178.455 101.143 179.356C101.143 180.464 101.524 181.365 102.287 182.058L103.014 181.33C102.46 180.776 102.183 180.118 102.183 179.356C102.183 178.871 102.356 178.49 102.702 178.212C102.979 177.935 103.361 177.797 103.846 177.797C104.469 177.797 104.989 177.97 105.405 178.316C105.82 178.732 106.028 179.46 106.028 180.499H106.964V179.875C106.964 179.113 107.137 178.524 107.483 178.108C107.83 177.623 108.349 177.381 109.042 177.381C109.735 177.381 110.29 177.554 110.705 177.901C111.052 178.247 111.225 178.767 111.225 179.46C111.225 179.806 111.19 180.118 111.121 180.395C110.982 180.603 110.844 180.845 110.705 181.123C110.567 181.192 110.463 181.261 110.393 181.33C110.324 181.33 110.22 181.365 110.082 181.434L109.978 181.538L110.082 181.642L111.121 182.37C111.467 182.023 111.745 181.608 111.952 181.123ZM13.6303 174.886H100V173.639H13.6303V174.886ZM13.6303 171.145H100V167.403H13.6303V171.145ZM111.849 172.392C112.195 171.838 112.368 171.214 112.368 170.521C112.368 169.898 112.195 169.309 111.849 168.754C111.571 168.269 111.156 167.888 110.601 167.611C110.047 167.265 109.423 167.091 108.731 167.091C107.968 167.091 107.31 167.23 106.756 167.507C106.201 167.784 105.786 168.2 105.509 168.754C105.231 169.239 105.093 169.794 105.093 170.417C105.093 171.041 105.231 171.63 105.509 172.184L102.39 171.976V167.507H101.247V173.016L106.756 173.431L107.068 172.6C106.79 172.323 106.548 172.011 106.34 171.664C106.132 171.318 106.028 170.972 106.028 170.625C106.028 169.932 106.271 169.378 106.756 168.962C107.241 168.546 107.864 168.339 108.627 168.339C109.181 168.339 109.631 168.442 109.978 168.65C110.393 168.858 110.705 169.101 110.913 169.378C111.121 169.724 111.225 170.071 111.225 170.417C111.225 170.833 111.156 171.214 111.017 171.561C110.948 171.838 110.775 172.08 110.497 172.288C110.359 172.427 110.255 172.496 110.186 172.496C110.116 172.565 110.012 172.6 109.874 172.6H109.77L110.601 173.743C111.156 173.397 111.571 172.946 111.849 172.392ZM13.6303 166.156H100V162.414H13.6303V166.156ZM13.6303 161.167H100V159.92H13.6303V161.167ZM101.767 160.024C101.351 160.578 101.143 161.202 101.143 161.895C101.143 162.449 101.317 162.969 101.663 163.454C101.94 163.939 102.356 164.32 102.91 164.597C103.464 164.874 104.053 165.013 104.677 165.013C105.37 165.013 105.959 164.874 106.444 164.597C106.929 164.32 107.31 163.939 107.587 163.454C107.864 162.969 108.003 162.414 108.003 161.791C108.003 161.375 107.934 160.994 107.795 160.647C107.657 160.301 107.449 159.989 107.171 159.712C108.349 159.781 109.319 160.024 110.082 160.44C110.844 160.855 111.225 161.479 111.225 162.31C111.225 162.726 111.121 163.107 110.913 163.454C110.844 163.592 110.775 163.696 110.705 163.765H110.393L110.29 163.869L111.329 164.805C111.952 164.112 112.264 163.246 112.264 162.206C112.264 161.028 111.71 160.093 110.601 159.4C109.562 158.777 107.968 158.465 105.82 158.465C104.92 158.465 104.123 158.603 103.43 158.881C102.737 159.158 102.183 159.539 101.767 160.024ZM106.756 160.543C106.894 160.89 106.964 161.306 106.964 161.791C106.964 162.345 106.756 162.83 106.34 163.246C105.924 163.592 105.37 163.765 104.677 163.765C103.915 163.765 103.326 163.592 102.91 163.246C102.494 162.899 102.287 162.414 102.287 161.791C102.287 161.098 102.598 160.578 103.222 160.232C103.846 159.885 104.781 159.712 106.028 159.712C106.375 159.92 106.617 160.197 106.756 160.543ZM111.952 154.827C112.16 154.342 112.264 153.753 112.264 153.06C112.264 152.367 112.16 151.778 111.952 151.293C111.675 150.808 111.294 150.427 110.809 150.15C110.393 149.873 109.908 149.734 109.354 149.734C108.731 149.734 108.142 149.907 107.587 150.254C107.033 150.67 106.617 151.189 106.34 151.813C106.063 151.328 105.682 150.912 105.197 150.566C104.712 150.219 104.227 150.046 103.742 150.046C102.979 150.046 102.356 150.289 101.871 150.774C101.386 151.259 101.143 151.986 101.143 152.956C101.143 153.857 101.386 154.585 101.871 155.139C102.356 155.624 103.014 155.866 103.846 155.866C104.331 155.866 104.816 155.728 105.301 155.451C105.716 155.104 106.063 154.688 106.34 154.203C106.617 154.827 107.033 155.347 107.587 155.762C108.142 156.178 108.731 156.386 109.354 156.386C109.908 156.386 110.428 156.247 110.913 155.97C111.329 155.693 111.675 155.312 111.952 154.827ZM104.885 151.709C105.301 151.986 105.647 152.333 105.924 152.748C105.509 153.441 105.162 153.926 104.885 154.203C104.538 154.55 104.123 154.723 103.638 154.723C103.222 154.723 102.876 154.585 102.598 154.307C102.321 153.961 102.183 153.511 102.183 152.956C102.183 152.471 102.321 152.055 102.598 151.709C102.876 151.432 103.257 151.293 103.742 151.293C104.157 151.293 104.538 151.432 104.885 151.709ZM110.705 151.501C111.052 151.848 111.225 152.367 111.225 153.06C111.225 153.684 111.017 154.169 110.601 154.515C110.255 154.931 109.804 155.139 109.25 155.139C108.765 155.139 108.28 154.966 107.795 154.619C107.379 154.273 107.068 153.822 106.86 153.268C107.068 152.575 107.379 152.021 107.795 151.605C108.28 151.189 108.8 150.981 109.354 150.981C109.908 150.981 110.359 151.155 110.705 151.501ZM13.6303 148.695H100V147.448H13.6303V148.695ZM13.6303 142.459H100V141.212H13.6303V142.459ZM111.952 146.2C112.23 145.646 112.368 145.092 112.368 144.538C112.368 143.845 112.195 143.256 111.849 142.771C111.571 142.286 111.19 141.905 110.705 141.627C110.22 141.35 109.701 141.212 109.146 141.212C108.453 141.212 107.864 141.419 107.379 141.835C106.894 142.182 106.548 142.667 106.34 143.29C106.201 142.736 105.89 142.32 105.405 142.043C104.989 141.766 104.469 141.627 103.846 141.627C103.083 141.627 102.425 141.87 101.871 142.355C101.386 142.84 101.143 143.533 101.143 144.434C101.143 145.542 101.524 146.443 102.287 147.136L103.014 146.408C102.46 145.854 102.183 145.196 102.183 144.434C102.183 143.949 102.356 143.567 102.702 143.29C102.979 143.013 103.361 142.875 103.846 142.875C104.469 142.875 104.989 143.048 105.405 143.394C105.82 143.81 106.028 144.538 106.028 145.577H106.964V144.953C106.964 144.191 107.137 143.602 107.483 143.186C107.83 142.701 108.349 142.459 109.042 142.459C109.735 142.459 110.29 142.632 110.705 142.979C111.052 143.325 111.225 143.845 111.225 144.538C111.225 144.884 111.19 145.196 111.121 145.473C110.982 145.681 110.844 145.923 110.705 146.2C110.567 146.27 110.463 146.339 110.393 146.408C110.324 146.408 110.22 146.443 110.082 146.512L109.978 146.616L110.082 146.72L111.121 147.448C111.467 147.101 111.745 146.686 111.952 146.2ZM103.43 138.198L102.702 135.911H112.16V134.768H101.247V135.599L102.702 138.405L103.43 138.198ZM13.6303 131.234H100V129.987H13.6303V131.234ZM13.6303 127.492H100V123.751H13.6303V127.492ZM111.849 128.739C112.195 128.185 112.368 127.562 112.368 126.869C112.368 126.245 112.195 125.656 111.849 125.102C111.571 124.617 111.156 124.236 110.601 123.958C110.047 123.612 109.423 123.439 108.731 123.439C107.968 123.439 107.31 123.577 106.756 123.855C106.201 124.132 105.786 124.547 105.509 125.102C105.231 125.587 105.093 126.141 105.093 126.765C105.093 127.388 105.231 127.977 105.509 128.532L102.39 128.324V123.855H101.247V129.363L106.756 129.779L107.068 128.947C106.79 128.67 106.548 128.358 106.34 128.012C106.132 127.665 106.028 127.319 106.028 126.973C106.028 126.28 106.271 125.725 106.756 125.31C107.241 124.894 107.864 124.686 108.627 124.686C109.181 124.686 109.631 124.79 109.978 124.998C110.393 125.206 110.705 125.448 110.913 125.725C111.121 126.072 111.225 126.418 111.225 126.765C111.225 127.18 111.156 127.562 111.017 127.908C110.948 128.185 110.775 128.428 110.497 128.636C110.359 128.774 110.255 128.843 110.186 128.843C110.116 128.913 110.012 128.947 109.874 128.947H109.77L110.601 130.091C111.156 129.744 111.571 129.294 111.849 128.739ZM102.702 115.644C101.663 116.267 101.143 117.099 101.143 118.138C101.143 119.177 101.663 120.009 102.702 120.633C103.672 121.187 105.024 121.464 106.756 121.464C108.557 121.464 109.943 121.187 110.913 120.633C111.883 120.078 112.368 119.247 112.368 118.138C112.368 117.029 111.883 116.198 110.913 115.644C109.943 115.089 108.557 114.812 106.756 114.812C105.024 114.812 103.672 115.089 102.702 115.644ZM103.43 119.697C102.668 119.351 102.287 118.831 102.287 118.138C102.287 117.722 102.425 117.376 102.702 117.099C102.979 116.822 103.395 116.579 103.95 116.371L108.731 120.113C108.176 120.182 107.518 120.217 106.756 120.217C105.37 120.217 104.261 120.044 103.43 119.697ZM110.082 116.579C110.844 116.926 111.225 117.445 111.225 118.138C111.225 118.9 110.705 119.455 109.666 119.801L104.989 116.163C105.474 116.094 106.063 116.059 106.756 116.059C108.211 116.059 109.319 116.233 110.082 116.579ZM13.6303 113.773H100V112.526H13.6303V113.773ZM13.6303 111.278H100V107.537H13.6303V111.278ZM109.458 112.941V108.264H112.16V106.913H109.458V105.562H108.419V106.913H101.247V107.953L108.523 112.941H109.458ZM103.43 108.264H108.419V111.486L103.43 108.264ZM13.6303 105.042H100V103.795H13.6303V105.042ZM13.6303 101.301H100V97.5591H13.6303V101.301ZM111.849 102.548C112.195 101.994 112.368 101.37 112.368 100.677C112.368 100.054 112.195 99.4645 111.849 98.9102C111.571 98.4252 111.156 98.0441 110.601 97.767C110.047 97.4205 109.423 97.2473 108.731 97.2473C107.968 97.2473 107.31 97.3859 106.756 97.663C106.201 97.9402 105.786 98.3559 105.509 98.9102C105.231 99.3953 105.093 99.9496 105.093 100.573C105.093 101.197 105.231 101.786 105.509 102.34L102.39 102.132V97.663H101.247V103.172L106.756 103.587L107.068 102.756C106.79 102.479 106.548 102.167 106.34 101.82C106.132 101.474 106.028 101.128 106.028 100.781C106.028 100.088 106.271 99.5338 106.756 99.1181C107.241 98.7024 107.864 98.4945 108.627 98.4945C109.181 98.4945 109.631 98.5984 109.978 98.8063C110.393 99.0142 110.705 99.2567 110.913 99.5338C111.121 99.8803 111.225 100.227 111.225 100.573C111.225 100.989 111.156 101.37 111.017 101.716C110.948 101.994 110.775 102.236 110.497 102.444C110.359 102.583 110.255 102.652 110.186 102.652C110.116 102.721 110.012 102.756 109.874 102.756H109.77L110.601 103.899C111.156 103.553 111.571 103.102 111.849 102.548ZM13.6303 96.2079H100V95.0646H13.6303V96.2079ZM13.6303 92.4663H100V91.323H13.6303V92.4663ZM111.952 93.7135C112.16 93.2285 112.264 92.6395 112.264 91.9466C112.264 91.2537 112.16 90.6647 111.952 90.1797C111.675 89.6947 111.294 89.3136 110.809 89.0364C110.393 88.7593 109.908 88.6207 109.354 88.6207C108.731 88.6207 108.142 88.7939 107.587 89.1404C107.033 89.5561 106.617 90.0758 106.34 90.6994C106.063 90.2144 105.682 89.7986 105.197 89.4522C104.712 89.1057 104.227 88.9325 103.742 88.9325C102.979 88.9325 102.356 89.175 101.871 89.66C101.386 90.1451 101.143 90.8726 101.143 91.8427C101.143 92.7434 101.386 93.471 101.871 94.0253C102.356 94.5103 103.014 94.7528 103.846 94.7528C104.331 94.7528 104.816 94.6143 105.301 94.3371C105.716 93.9907 106.063 93.5749 106.34 93.0899C106.617 93.7135 107.033 94.2332 107.587 94.6489C108.142 95.0646 108.731 95.2725 109.354 95.2725C109.908 95.2725 110.428 95.1339 110.913 94.8568C111.329 94.5796 111.675 94.1985 111.952 93.7135ZM104.885 90.5955C105.301 90.8726 105.647 91.2191 105.924 91.6348C105.509 92.3277 105.162 92.8127 104.885 93.0899C104.538 93.4363 104.123 93.6096 103.638 93.6096C103.222 93.6096 102.876 93.471 102.598 93.1938C102.321 92.8474 102.183 92.397 102.183 91.8427C102.183 91.3576 102.321 90.9419 102.598 90.5955C102.876 90.3183 103.257 90.1797 103.742 90.1797C104.157 90.1797 104.538 90.3183 104.885 90.5955ZM110.705 90.3876C111.052 90.734 111.225 91.2537 111.225 91.9466C111.225 92.5702 111.017 93.0552 110.601 93.4017C110.255 93.8174 109.804 94.0253 109.25 94.0253C108.765 94.0253 108.28 93.8521 107.795 93.5056C107.379 93.1592 107.068 92.7088 106.86 92.1545C107.068 91.4616 107.379 90.9073 107.795 90.4915C108.28 90.0758 108.8 89.8679 109.354 89.8679C109.908 89.8679 110.359 90.0411 110.705 90.3876ZM111.952 84.8791C112.16 84.394 112.264 83.8051 112.264 83.1122C112.264 82.4193 112.16 81.8303 111.952 81.3453C111.675 80.8602 111.294 80.4791 110.809 80.202C110.393 79.9248 109.908 79.7863 109.354 79.7863C108.731 79.7863 108.142 79.9595 107.587 80.3059C107.033 80.7217 106.617 81.2413 106.34 81.8649C106.063 81.3799 105.682 80.9642 105.197 80.6177C104.712 80.2713 104.227 80.0981 103.742 80.0981C102.979 80.0981 102.356 80.3406 101.871 80.8256C101.386 81.3106 101.143 82.0382 101.143 83.0082C101.143 83.909 101.386 84.6365 101.871 85.1909C102.356 85.6759 103.014 85.9184 103.846 85.9184C104.331 85.9184 104.816 85.7798 105.301 85.5027C105.716 85.1562 106.063 84.7405 106.34 84.2554C106.617 84.8791 107.033 85.3987 107.587 85.8145C108.142 86.2302 108.731 86.4381 109.354 86.4381C109.908 86.4381 110.428 86.2995 110.913 86.0223C111.329 85.7452 111.675 85.3641 111.952 84.8791ZM104.885 81.761C105.301 82.0382 105.647 82.3846 105.924 82.8004C105.509 83.4933 105.162 83.9783 104.885 84.2554C104.538 84.6019 104.123 84.7751 103.638 84.7751C103.222 84.7751 102.876 84.6365 102.598 84.3594C102.321 84.0129 102.183 83.5625 102.183 83.0082C102.183 82.5232 102.321 82.1075 102.598 81.761C102.876 81.4839 103.257 81.3453 103.742 81.3453C104.157 81.3453 104.538 81.4839 104.885 81.761ZM110.705 81.5531C111.052 81.8996 111.225 82.4193 111.225 83.1122C111.225 83.7358 111.017 84.2208 110.601 84.5672C110.255 84.983 109.804 85.1909 109.25 85.1909C108.765 85.1909 108.28 85.0176 107.795 84.6712C107.379 84.3247 107.068 83.8744 106.86 83.32C107.068 82.6271 107.379 82.0728 107.795 81.6571C108.28 81.2413 108.8 81.0335 109.354 81.0335C109.908 81.0335 110.359 81.2067 110.705 81.5531ZM13.6303 78.7469H100V77.4997H13.6303V78.7469ZM13.6303 72.5108H100V71.2636H13.6303V72.5108ZM111.952 76.2525C112.23 75.6982 112.368 75.1438 112.368 74.5895C112.368 73.8966 112.195 73.3077 111.849 72.8226C111.571 72.3376 111.19 71.9565 110.705 71.6794C110.22 71.4022 109.701 71.2636 109.146 71.2636C108.453 71.2636 107.864 71.4715 107.379 71.8872C106.894 72.2337 106.548 72.7187 106.34 73.3423C106.201 72.788 105.89 72.3722 105.405 72.0951C104.989 71.8179 104.469 71.6794 103.846 71.6794C103.083 71.6794 102.425 71.9219 101.871 72.4069C101.386 72.8919 101.143 73.5848 101.143 74.4856C101.143 75.5942 101.524 76.495 102.287 77.1879L103.014 76.4603C102.46 75.906 102.183 75.2478 102.183 74.4856C102.183 74.0006 102.356 73.6195 102.702 73.3423C102.979 73.0651 103.361 72.9266 103.846 72.9266C104.469 72.9266 104.989 73.0998 105.405 73.4462C105.82 73.862 106.028 74.5895 106.028 75.6289H106.964V75.0053C106.964 74.2431 107.137 73.6541 107.483 73.2384C107.83 72.7533 108.349 72.5108 109.042 72.5108C109.735 72.5108 110.29 72.6841 110.705 73.0305C111.052 73.3769 111.225 73.8966 111.225 74.5895C111.225 74.936 111.19 75.2478 111.121 75.5249C110.982 75.7328 110.844 75.9753 110.705 76.2525C110.567 76.3218 110.463 76.3911 110.393 76.4603C110.324 76.4603 110.22 76.495 110.082 76.5643L109.978 76.6682L110.082 76.7721L111.121 77.4997C111.467 77.1532 111.745 76.7375 111.952 76.2525ZM13.6303 70.0164H100V68.7692H13.6303V70.0164ZM13.6303 66.2748H100V62.5331H13.6303V66.2748ZM111.849 67.522C112.195 66.9677 112.368 66.344 112.368 65.6511C112.368 65.0275 112.195 64.4386 111.849 63.8843C111.571 63.3992 111.156 63.0181 110.601 62.741C110.047 62.3945 109.423 62.2213 108.731 62.2213C107.968 62.2213 107.31 62.3599 106.756 62.637C106.201 62.9142 105.786 63.3299 105.509 63.8843C105.231 64.3693 105.093 64.9236 105.093 65.5472C105.093 66.1708 105.231 66.7598 105.509 67.3141L102.39 67.1062V62.637H101.247V68.1456L106.756 68.5613L107.068 67.7298C106.79 67.4527 106.548 67.1409 106.34 66.7944C106.132 66.448 106.028 66.1015 106.028 65.7551C106.028 65.0622 106.271 64.5079 106.756 64.0921C107.241 63.6764 107.864 63.4685 108.627 63.4685C109.181 63.4685 109.631 63.5725 109.978 63.7803C110.393 63.9882 110.705 64.2307 110.913 64.5079C111.121 64.8543 111.225 65.2008 111.225 65.5472C111.225 65.963 111.156 66.344 111.017 66.6905C110.948 66.9677 110.775 67.2102 110.497 67.418C110.359 67.5566 110.255 67.6259 110.186 67.6259C110.116 67.6952 110.012 67.7298 109.874 67.7298H109.77L110.601 68.8731C111.156 68.5267 111.571 68.0763 111.849 67.522ZM13.6303 61.2859H100V60.0387H13.6303V61.2859ZM13.6303 55.0498H100V53.8026H13.6303V55.0498ZM111.952 58.7915C112.23 58.2371 112.368 57.6828 112.368 57.1285C112.368 56.4356 112.195 55.8466 111.849 55.3616C111.571 54.8766 111.19 54.4955 110.705 54.2183C110.22 53.9412 109.701 53.8026 109.146 53.8026C108.453 53.8026 107.864 54.0105 107.379 54.4262C106.894 54.7727 106.548 55.2577 106.34 55.8813C106.201 55.327 105.89 54.9112 105.405 54.6341C104.989 54.3569 104.469 54.2183 103.846 54.2183C103.083 54.2183 102.425 54.4608 101.871 54.9459C101.386 55.4309 101.143 56.1238 101.143 57.0246C101.143 58.1332 101.524 59.034 102.287 59.7269L103.014 58.9993C102.46 58.445 102.183 57.7868 102.183 57.0246C102.183 56.5395 102.356 56.1584 102.702 55.8813C102.979 55.6041 103.361 55.4655 103.846 55.4655C104.469 55.4655 104.989 55.6388 105.405 55.9852C105.82 56.401 106.028 57.1285 106.028 58.1679H106.964V57.5442C106.964 56.7821 107.137 56.1931 107.483 55.7774C107.83 55.2923 108.349 55.0498 109.042 55.0498C109.735 55.0498 110.29 55.223 110.705 55.5695C111.052 55.9159 111.225 56.4356 111.225 57.1285C111.225 57.475 111.19 57.7868 111.121 58.0639C110.982 58.2718 110.844 58.5143 110.705 58.7915C110.567 58.8607 110.463 58.93 110.393 58.9993C110.324 58.9993 110.22 59.034 110.082 59.1033L109.978 59.2072L110.082 59.3111L111.121 60.0387C111.467 59.6922 111.745 59.2765 111.952 58.7915ZM102.702 45.6957C101.663 46.3193 101.143 47.1508 101.143 48.1901C101.143 49.2295 101.663 50.0609 102.702 50.6846C103.672 51.2389 105.024 51.516 106.756 51.516C108.557 51.516 109.943 51.2389 110.913 50.6846C111.883 50.1302 112.368 49.2988 112.368 48.1901C112.368 47.0815 111.883 46.25 110.913 45.6957C109.943 45.1414 108.557 44.8642 106.756 44.8642C105.024 44.8642 103.672 45.1414 102.702 45.6957ZM103.43 49.7491C102.668 49.4027 102.287 48.883 102.287 48.1901C102.287 47.7744 102.425 47.4279 102.702 47.1508C102.979 46.8736 103.395 46.6311 103.95 46.4232L108.731 50.1649C108.176 50.2342 107.518 50.2688 106.756 50.2688C105.37 50.2688 104.261 50.0956 103.43 49.7491ZM110.082 46.6311C110.844 46.9776 111.225 47.4972 111.225 48.1901C111.225 48.9523 110.705 49.5066 109.666 49.8531L104.989 46.2154C105.474 46.1461 106.063 46.1114 106.756 46.1114C108.211 46.1114 109.319 46.2847 110.082 46.6311ZM13.6303 43.8249H100V42.5777H13.6303V43.8249ZM13.6303 40.0832H100V36.3416H13.6303V40.0832ZM111.849 41.3304C112.195 40.7761 112.368 40.1525 112.368 39.4596C112.368 38.836 112.195 38.2471 111.849 37.6927C111.571 37.2077 111.156 36.8266 110.601 36.5494C110.047 36.203 109.423 36.0298 108.731 36.0298C107.968 36.0298 107.31 36.1684 106.756 36.4455C106.201 36.7227 105.786 37.1384 105.509 37.6927C105.231 38.1778 105.093 38.7321 105.093 39.3557C105.093 39.9793 105.231 40.5683 105.509 41.1226L102.39 40.9147V36.4455H101.247V41.9541L106.756 42.3698L107.068 41.5383C106.79 41.2612 106.548 40.9493 106.34 40.6029C106.132 40.2565 106.028 39.91 106.028 39.5636C106.028 38.8707 106.271 38.3163 106.756 37.9006C107.241 37.4849 107.864 37.277 108.627 37.277C109.181 37.277 109.631 37.3809 109.978 37.5888C110.393 37.7967 110.705 38.0392 110.913 38.3163C111.121 38.6628 111.225 39.0092 111.225 39.3557C111.225 39.7714 111.156 40.1525 111.017 40.499C110.948 40.7761 110.775 41.0186 110.497 41.2265C110.359 41.3651 110.255 41.4344 110.186 41.4344C110.116 41.5037 110.012 41.5383 109.874 41.5383H109.77L110.601 42.6816C111.156 42.3351 111.571 41.8848 111.849 41.3304ZM13.6303 35.0944H100V31.3527H13.6303V35.0944ZM13.6303 30.1055H100V28.8583H13.6303V30.1055ZM101.767 28.9622C101.351 29.5165 101.143 30.1401 101.143 30.833C101.143 31.3874 101.317 31.907 101.663 32.3921C101.94 32.8771 102.356 33.2582 102.91 33.5353C103.464 33.8125 104.053 33.9511 104.677 33.9511C105.37 33.9511 105.959 33.8125 106.444 33.5353C106.929 33.2582 107.31 32.8771 107.587 32.3921C107.864 31.907 108.003 31.3527 108.003 30.7291C108.003 30.3134 107.934 29.9323 107.795 29.5858C107.657 29.2394 107.449 28.9276 107.171 28.6504C108.349 28.7197 109.319 28.9622 110.082 29.378C110.844 29.7937 111.225 30.4173 111.225 31.2488C111.225 31.6645 111.121 32.0456 110.913 32.3921C110.844 32.5306 110.775 32.6346 110.705 32.7039H110.393L110.29 32.8078L111.329 33.7432C111.952 33.0503 112.264 32.1842 112.264 31.1448C112.264 29.9669 111.71 29.0315 110.601 28.3386C109.562 27.715 107.968 27.4032 105.82 27.4032C104.92 27.4032 104.123 27.5418 103.43 27.8189C102.737 28.0961 102.183 28.4772 101.767 28.9622ZM106.756 29.4819C106.894 29.8283 106.964 30.2441 106.964 30.7291C106.964 31.2834 106.756 31.7685 106.34 32.1842C105.924 32.5306 105.37 32.7039 104.677 32.7039C103.915 32.7039 103.326 32.5306 102.91 32.1842C102.494 31.8377 102.287 31.3527 102.287 30.7291C102.287 30.0362 102.598 29.5165 103.222 29.1701C103.846 28.8236 104.781 28.6504 106.028 28.6504C106.375 28.8583 106.617 29.1354 106.756 29.4819ZM13.6303 26.3639H100V25.1166H13.6303V26.3639ZM13.6303 22.6222H100V18.8806H13.6303V22.6222ZM111.849 23.8694C112.195 23.3151 112.368 22.6915 112.368 21.9986C112.368 21.375 112.195 20.786 111.849 20.2317C111.571 19.7467 111.156 19.3656 110.601 19.0884C110.047 18.742 109.423 18.5688 108.731 18.5688C107.968 18.5688 107.31 18.7073 106.756 18.9845C106.201 19.2617 105.786 19.6774 105.509 20.2317C105.231 20.7167 105.093 21.2711 105.093 21.8947C105.093 22.5183 105.231 23.1072 105.509 23.6616L102.39 23.4537V18.9845H101.247V24.493L106.756 24.9088L107.068 24.0773C106.79 23.8001 106.548 23.4883 106.34 23.1419C106.132 22.7954 106.028 22.449 106.028 22.1025C106.028 21.4096 106.271 20.8553 106.756 20.4396C107.241 20.0238 107.864 19.816 108.627 19.816C109.181 19.816 109.631 19.9199 109.978 20.1278C110.393 20.3357 110.705 20.5782 110.913 20.8553C111.121 21.2018 111.225 21.5482 111.225 21.8947C111.225 22.3104 111.156 22.6915 111.017 23.038C110.948 23.3151 110.775 23.5576 110.497 23.7655C110.359 23.9041 110.255 23.9734 110.186 23.9734C110.116 24.0427 110.012 24.0773 109.874 24.0773H109.77L110.601 25.2206C111.156 24.8741 111.571 24.4237 111.849 23.8694ZM13.6303 17.6333H100V13.8917H13.6303V17.6333ZM13.6303 12.6445H100V11.3973H13.6303V12.6445ZM101.767 11.5012C101.351 12.0555 101.143 12.6791 101.143 13.372C101.143 13.9263 101.317 14.446 101.663 14.931C101.94 15.4161 102.356 15.7972 102.91 16.0743C103.464 16.3515 104.053 16.4901 104.677 16.4901C105.37 16.4901 105.959 16.3515 106.444 16.0743C106.929 15.7972 107.31 15.4161 107.587 14.931C107.864 14.446 108.003 13.8917 108.003 13.2681C108.003 12.8524 107.934 12.4713 107.795 12.1248C107.657 11.7784 107.449 11.4666 107.171 11.1894C108.349 11.2587 109.319 11.5012 110.082 11.9169C110.844 12.3327 111.225 12.9563 111.225 13.7878C111.225 14.2035 111.121 14.5846 110.913 14.931C110.844 15.0696 110.775 15.1736 110.705 15.2429H110.393L110.29 15.3468L111.329 16.2822C111.952 15.5893 112.264 14.7232 112.264 13.6838C112.264 12.5059 111.71 11.5705 110.601 10.8776C109.562 10.254 107.968 9.94218 105.82 9.94218C104.92 9.94218 104.123 10.0808 103.43 10.3579C102.737 10.6351 102.183 11.0162 101.767 11.5012ZM106.756 12.0209C106.894 12.3673 106.964 12.7831 106.964 13.2681C106.964 13.8224 106.756 14.3074 106.34 14.7232C105.924 15.0696 105.37 15.2429 104.677 15.2429C103.915 15.2429 103.326 15.0696 102.91 14.7232C102.494 14.3767 102.287 13.8917 102.287 13.2681C102.287 12.5752 102.598 12.0555 103.222 11.7091C103.846 11.3626 104.781 11.1894 106.028 11.1894C106.375 11.3973 106.617 11.6744 106.756 12.0209Z" fill="white"/>
</svg>
