<svg width="383" height="177" viewBox="0 0 383 177" fill="none" xmlns="http://www.w3.org/2000/svg">
<path fill-rule="evenodd" clip-rule="evenodd" d="M69.1189 176.431C20.3291 174.83 3.86253 176.431 6.24999e-06 135.188C7.3694e-06 100.945 31.6737 73.1847 70.7452 73.1847C77.4271 73.1847 83.8927 73.9966 90.0204 75.514C93.0765 33.4101 137.979 7.24917e-06 192.923 9.04526e-06C244.895 1.07442e-05 287.882 29.8933 294.967 68.7615C300.621 67.4025 306.55 66.6794 312.661 66.6794C351.508 66.6794 383 95.8957 383 131.936C383 167.976 351.915 176.456 313.068 176.456C312.932 176.456 312.797 176.456 312.661 176.455L312.661 176.456L69.1189 176.431Z" fill="#F8F8F8"/>
</svg>
