<svg width="1650" height="726" viewBox="0 0 1650 726" fill="none" xmlns="http://www.w3.org/2000/svg">
<path d="M77.3519 464.753C77.3519 493.725 90.898 521.284 115.307 546.303C139.714 571.32 175.006 593.826 218.577 612.716C305.722 650.496 426.083 673.853 559.03 673.853C701.734 673.853 829.899 646.973 918.063 604.152C880.501 639.506 820.698 669.561 746.351 690.913C670.343 712.743 579.178 725.463 481.141 725.463C348.342 725.463 228.133 702.123 141.143 664.414C97.6477 645.559 62.4818 623.122 38.1975 598.237C13.9155 573.353 0.537281 546.05 0.537281 517.437C0.537281 465.791 44.104 418.457 116.536 381.974C91.3252 407.316 77.3519 435.3 77.3519 464.753Z" fill="url(#paint0_linear_104_46)" stroke="black" stroke-width="1.07456"/>
<path d="M1257.23 41.5313C1157.37 41.5313 1067.59 62.8101 1005.63 96.7088C1032.01 68.7453 1073.77 44.9811 1125.64 28.0697C1179.01 10.6697 1243.04 0.537281 1311.91 0.537281C1405.2 0.537281 1489.64 19.15 1550.73 49.2196C1611.86 79.3063 1649.46 120.771 1649.46 166.408C1649.46 207.346 1619.2 244.915 1568.75 273.943C1586.01 253.966 1595.66 232.036 1595.8 208.97H1595.86V208.433C1595.86 162.159 1557.77 120.43 1496.53 90.3018C1435.26 60.1562 1350.65 41.5313 1257.23 41.5313Z" fill="url(#paint1_linear_104_46)" stroke="black" stroke-width="1.07456"/>
<defs>
<linearGradient id="paint0_linear_104_46" x1="-101.013" y1="289.728" x2="-75.0959" y2="653.103" gradientUnits="userSpaceOnUse">
<stop stop-color="#058CD7"/>
<stop offset="1" stop-color="white"/>
</linearGradient>
<linearGradient id="paint1_linear_104_46" x1="891.062" y1="1.8277e-06" x2="1286.61" y2="291.392" gradientUnits="userSpaceOnUse">
<stop stop-color="#058CD7"/>
<stop offset="1" stop-color="white"/>
</linearGradient>
</defs>
</svg>
