<svg width="1251" height="771" viewBox="0 0 1251 771" fill="none" xmlns="http://www.w3.org/2000/svg">
<rect x="1426.06" y="-339.612" width="913" height="85" rx="42.5" transform="rotate(146.74 1426.06 -339.612)" fill="#058CD7"/>
<rect x="1139.88" y="-553.883" width="1108" height="85" rx="42.5" transform="rotate(146.74 1139.88 -553.883)" fill="#058CD7"/>
<rect x="1293.69" y="-352.199" width="1076" height="85" rx="42.5" transform="rotate(146.74 1293.69 -352.199)" fill="#00995E"/>
<rect x="1232.02" y="-413.403" width="1002" height="85" rx="42.5" transform="rotate(146.74 1232.02 -413.403)" fill="#552CB7"/>
<rect x="1154.73" y="-461.966" width="1215" height="85" rx="42.5" transform="rotate(146.74 1154.73 -461.966)" fill="#FB7DA8"/>
<rect x="1809.37" y="-491.924" width="1108" height="85" rx="42.5" transform="rotate(146.74 1809.37 -491.924)" fill="#058CD7"/>
<rect x="1961.18" y="-292.156" width="1076" height="85" rx="42.5" transform="rotate(146.74 1961.18 -292.156)" fill="#00995E"/>
<rect x="1899.51" y="-353.361" width="1002" height="85" rx="42.5" transform="rotate(146.74 1899.51 -353.361)" fill="#552CB7"/>
<rect x="1822.21" y="-401.924" width="1215" height="85" rx="42.5" transform="rotate(146.74 1822.21 -401.924)" fill="#FB7DA8"/>
</svg>
