<svg width="92" height="92" viewBox="0 0 92 92" fill="none" xmlns="http://www.w3.org/2000/svg">
<path d="M87.4228 0.443786C78.518 5.74603 66.9805 10.6234 57.0596 8.42486C54.972 7.96299 53.0598 9.86589 53.5217 11.9628C55.6555 21.5973 51.1107 32.7561 45.9933 41.55C40.8758 32.7561 36.331 21.5973 38.4648 11.9628C38.9267 9.87513 37.0238 7.96299 34.9269 8.42486C25.0152 10.6234 13.4778 5.74603 4.57295 0.443786C1.87564 -1.15428 -1.15421 1.87558 0.443852 4.57288C5.74609 13.4777 10.6234 25.0152 8.42493 34.9361C7.96306 37.0237 9.86596 38.9359 11.9628 38.474C21.5974 36.3402 32.7561 40.8849 41.5501 46.0024C32.7561 51.1199 21.5974 55.6647 11.9628 53.5309C9.87519 53.069 7.96306 54.9719 8.42493 57.0688C10.6234 66.9897 5.74609 78.5272 0.443852 87.432C-1.15421 90.1293 1.87564 93.1591 4.56371 91.5518C13.4685 86.2496 25.006 81.3723 34.9269 83.5708C37.0145 84.0326 38.9267 82.1297 38.4648 80.0329C36.331 70.3983 40.8758 59.2396 45.9933 50.4456C51.1107 59.2396 55.6555 70.3983 53.5217 80.0329C53.0598 82.1205 54.9627 84.0326 57.0596 83.5708C66.9805 81.3723 78.518 86.2496 87.4228 91.5518C90.1109 93.1499 93.15 90.12 91.5427 87.432C86.2404 78.5272 81.3631 66.9897 83.5616 57.0688C84.0234 54.9811 82.1206 53.069 80.0237 53.5309C70.3891 55.6647 59.2304 51.1199 50.4364 46.0024C59.2304 40.8849 70.3891 36.3402 80.0237 38.474C82.1113 38.9359 84.0234 37.033 83.5616 34.9361C81.3631 25.0152 86.2404 13.4777 91.5427 4.57288C93.1407 1.88481 90.1109 -1.15428 87.4228 0.453024V0.443786Z" fill="#F8F8F8"/>
</svg>
