<svg width="192" height="192" viewBox="0 0 192 192" fill="none" xmlns="http://www.w3.org/2000/svg">
<path d="M192 96C103.227 99.9898 99.9898 103.227 96 192C92.0102 103.227 88.7729 99.9898 0 96C88.7729 92.0102 92.0102 88.7729 96 0C99.9898 88.7729 103.227 92.0102 192 96Z" fill="#F8F8F8"/>
<path d="M171.556 145.333C145.663 146.497 144.719 147.441 143.556 173.333C142.392 147.441 141.448 146.497 115.556 145.333C141.448 144.17 142.392 143.225 143.556 117.333C144.719 143.225 145.663 144.17 171.556 145.333Z" fill="#F8F8F8"/>
<path d="M79.1111 41.3333C42.5334 42.9773 41.1995 44.3112 39.5556 80.8889C37.9116 44.3112 36.5777 42.9773 0 41.3333C36.5777 39.6894 37.9116 38.3555 39.5556 1.77778C41.1995 38.3555 42.5334 39.6894 79.1111 41.3333Z" fill="#F8F8F8"/>
</svg>
