<svg width="442" height="42" viewBox="0 0 442 42" fill="none" xmlns="http://www.w3.org/2000/svg">
<path d="M0.738065 40.0996V1.52703C0.738065 1.15358 1.00482 0.833471 1.32492 0.833471H10.3412C10.7146 0.833471 10.9814 1.04687 11.0881 1.47368L14.2891 13.4776C14.3958 13.9044 14.5559 14.1178 14.6626 14.1178C14.8226 14.1178 14.9827 13.9044 14.9827 13.4242V1.52703C14.9827 1.15358 15.2495 0.833471 15.6229 0.833471H23.6255C24.0523 0.833471 24.3191 1.20693 24.3191 1.58038V40.1529C24.3191 40.5264 24.1057 40.8465 23.7322 40.8465H13.7556C13.5422 40.8465 13.2221 40.6331 13.1688 40.313L10.8213 30.7099C10.7146 30.1764 10.5012 29.963 10.3412 29.963C10.1811 29.963 10.0744 30.1764 10.0744 30.7099V40.1529C10.0744 40.5264 9.75433 40.8465 9.38088 40.8465H1.27157C0.951468 40.8465 0.738065 40.5264 0.738065 40.0996ZM33.8914 19.9864L26.7957 19.6129C26.4223 19.6129 26.4223 19.3462 26.4223 16.8387C26.4223 12.624 29.6767 8.83608 35.2251 8.83608C41.0937 8.83608 44.3481 12.5173 44.3481 16.6786V31.1367C44.3481 31.5635 44.5081 31.5635 45.6819 31.5635C45.8953 31.5635 46.0553 31.7769 46.0553 31.9903V35.298C46.0553 37.9122 43.7612 41.0065 40.7736 41.0065C38.3195 41.0065 37.3592 40.2063 36.5589 38.9792C36.2921 38.6058 36.1321 38.4991 36.0254 38.4991C35.972 38.4991 35.7586 38.6058 35.4385 39.0326C34.8517 39.8328 33.5713 40.8465 31.704 40.8465C29.4632 40.8465 26.1555 38.9792 26.1555 33.6442V29.6962C26.1555 25.4815 28.9831 23.2408 31.9174 22.0137C35.812 20.3598 36.0254 19.773 36.0254 17.9057C36.0254 17.1588 35.7053 16.7853 35.2251 16.7853C34.3715 16.7853 34.3715 17.1054 34.3715 19.5596C34.3715 19.8263 34.1581 19.9864 33.8914 19.9864ZM36.0254 32.3104V27.1354C36.0254 26.922 35.9187 26.7619 35.7053 26.7086C35.3852 26.7086 34.3182 27.1887 34.3182 28.3624V32.3104C34.3182 32.9506 34.745 33.2173 35.1718 33.2173C35.5986 33.2173 36.0254 32.9506 36.0254 32.3104ZM75.2702 14.3845V40.2596C75.2702 40.5797 75.1102 40.8465 74.7901 40.8465H67.6411C67.3743 40.8465 67.1609 40.5797 67.1609 40.2596V18.6526C67.1609 17.8523 66.7341 17.5322 66.3073 17.5322C65.8805 17.5322 65.4537 17.8523 65.4537 18.6526V40.313C65.4537 40.6331 65.2937 40.8465 64.9736 40.8465H57.6645C57.3978 40.8465 57.1844 40.6864 57.1844 40.3663V18.5993C57.1844 17.799 56.7575 17.5322 56.3307 17.5322C55.9039 17.5322 55.4771 17.799 55.4771 18.5993V40.473C55.4771 40.6864 55.3171 40.8465 55.0503 40.8465H47.7413C47.5279 40.8465 47.3678 40.6864 47.3678 40.4197V9.26288C47.3678 9.04948 47.5812 8.83608 47.848 8.83608H54.8369C55.2637 8.83608 55.5838 11.1302 55.9573 11.1302C56.1173 11.1302 56.2774 11.0235 56.5441 10.7034C57.3978 9.74304 58.8382 8.83608 60.5454 8.83608C62.4661 8.83608 63.7465 9.63634 64.6001 10.7567C64.8669 11.1302 65.0803 11.2902 65.2403 11.2902C65.4004 11.2902 65.6671 11.1302 65.8805 10.8634C66.8942 9.90309 68.2279 8.83608 70.2553 8.83608C72.9762 8.83608 75.2702 11.2902 75.2702 14.3845ZM77.1096 30.7099V17.4789C77.1096 11.1835 81.9645 8.83608 86.2859 8.83608C92.3145 8.83608 95.7823 13.4776 95.7823 18.706V21.9603C95.7823 22.2271 95.5689 22.4405 95.3022 22.4405H86.3926C86.1792 22.4405 86.0725 22.6006 86.0725 22.8673V31.2434C86.0725 32.097 86.446 32.4171 86.9261 32.4171C87.2996 32.4171 87.7797 32.097 87.7797 31.2967V28.0423C87.7797 27.8289 87.9398 27.6155 88.2599 27.6155L95.1421 27.989C95.4622 28.0423 95.6756 28.2557 95.6756 28.5758V31.9903C95.6756 38.8192 90.9808 40.8465 86.0725 40.8465C80.364 40.8465 77.1096 36.7918 77.1096 30.7099ZM86.0725 16.6253V19.2928C86.0725 19.4529 86.2326 19.5596 86.3926 19.5596C87.6197 19.5596 87.7797 19.5596 87.7797 19.2928C87.7797 15.8784 87.7264 15.5049 86.8728 15.5049C86.446 15.5049 86.0725 15.825 86.0725 16.6253ZM110.93 39.8862V1.74043C110.93 1.20693 111.197 0.833471 111.677 0.833471H124.108C126.562 0.833471 134.458 2.59405 134.458 12.6773C134.458 17.6389 130.03 22.5472 124.908 22.5472C122.294 22.5472 122.027 22.5472 122.027 23.1874V40.0996C122.027 40.5264 121.707 40.8465 121.12 40.8465H111.784C111.304 40.8465 110.93 40.4197 110.93 39.8862ZM122.027 11.3436V15.665C122.027 15.8784 122.187 16.2518 122.561 16.2518C123.361 16.2518 123.681 15.5583 123.681 14.4913V12.3039C123.681 11.4503 123.254 10.8634 122.561 10.8634C122.401 10.8634 122.294 10.8634 122.187 10.9168C122.08 10.9701 122.027 11.1835 122.027 11.3436ZM135.679 39.57C136.703 39.4485 137.416 39.2053 137.815 38.8406C138.214 38.4759 138.431 37.7726 138.466 36.7306L138.518 35.1676V20.6576C138.518 19.5462 138.327 18.7907 137.945 18.3913C137.563 17.9918 136.808 17.7227 135.679 17.5837V16.2812H145.812V20.4753C146.941 18.9991 148.061 17.8269 149.173 16.9585C150.284 16.0902 151.569 15.656 153.028 15.656C154.122 15.656 155.104 16.012 155.972 16.7241C156.858 17.4187 157.3 18.4434 157.3 19.798C157.3 20.84 156.988 21.6996 156.363 22.3769C155.755 23.0542 154.956 23.3929 153.966 23.3929C152.837 23.3929 151.856 22.8632 151.022 21.8038C150.206 20.7445 149.633 20.2148 149.303 20.2148C148.591 20.2148 147.87 20.6576 147.141 21.5433C146.429 22.4117 146.073 23.6621 146.073 25.2946V35.376C146.073 37.1474 146.325 38.2588 146.828 38.7104C147.349 39.1446 148.374 39.4311 149.902 39.57V40.8465H135.679V39.57ZM158.655 28.629C158.655 24.9125 159.793 21.8125 162.068 19.3291C164.36 16.8456 167.234 15.6039 170.69 15.6039C174.216 15.6039 177.099 16.8717 179.339 19.4072C181.597 21.9428 182.725 25.0167 182.725 28.629C182.725 32.1892 181.614 35.2544 179.391 37.8247C177.168 40.3776 174.268 41.6541 170.69 41.6541C167.217 41.6541 164.343 40.4123 162.068 37.9289C159.793 35.4281 158.655 32.3281 158.655 28.629ZM166.496 28.629C166.496 32.3628 166.687 34.9765 167.069 36.4701C167.677 38.7799 168.884 39.9347 170.69 39.9347C172.41 39.9347 173.538 39.049 174.077 37.2776C174.615 35.5062 174.884 32.6233 174.884 28.629C174.884 24.652 174.598 21.7778 174.025 20.0064C173.469 18.2176 172.366 17.3232 170.716 17.3232C168.91 17.3232 167.703 18.4781 167.095 20.7879C166.696 22.3335 166.496 24.9472 166.496 28.629ZM199.554 4.03764C201.69 4.03764 203.635 4.29814 205.389 4.81915C208.029 5.54855 209.349 6.88579 209.349 8.83087C209.349 10.1855 208.776 11.132 207.629 11.6703C207.056 11.9482 206.448 12.0871 205.806 12.0871C204.851 12.0871 204.034 11.8266 203.357 11.3056C202.697 10.7846 202.367 10.1073 202.367 9.27372C202.367 8.87429 202.55 8.14488 202.914 7.08551C202.914 6.66871 202.628 6.32137 202.055 6.0435C201.499 5.74827 200.813 5.60065 199.997 5.60065C197.947 5.60065 196.601 6.51241 195.959 8.33592C195.577 9.41266 195.386 11.349 195.386 14.1451V16.6459H200.83C201.872 16.5938 202.827 16.5417 203.696 16.4896C204.581 16.4201 205.762 16.3073 207.239 16.151L210.078 15.8384V36.5482C210.078 37.7639 210.278 38.5454 210.677 38.8927C211.094 39.2227 211.78 39.4485 212.735 39.57V40.8465H200.205V39.57C201.178 39.379 201.829 39.1185 202.159 38.7885C202.506 38.4586 202.68 37.7118 202.68 36.5482V20.4232C202.68 19.7806 202.558 19.3812 202.315 19.2249C202.089 19.0686 201.508 18.9904 200.57 18.9904H195.386V36.4701L195.568 38.1373C195.62 38.6062 195.855 38.9362 196.271 39.1272C196.706 39.3182 197.235 39.4658 197.861 39.57V40.8465H184.888V39.57C185.982 39.4485 186.711 39.2488 187.076 38.9709C187.666 38.5194 187.961 37.6423 187.961 36.3398V18.9904H184.888V16.6459H187.961C187.961 13.9888 188.187 12.0437 188.639 10.8107C189.09 9.2303 189.967 7.88438 191.27 6.77291C192.381 5.81774 193.649 5.12306 195.073 4.6889C196.497 4.25473 197.991 4.03764 199.554 4.03764ZM214.715 39.57C215.653 39.3443 216.313 39.049 216.695 38.6843C217.094 38.3023 217.294 37.5208 217.294 36.3398V9.16952C217.294 8.04068 217.112 7.30259 216.747 6.95526C216.382 6.60792 215.705 6.32137 214.715 6.0956V4.7931H224.822V36.3398C224.822 37.5208 225.013 38.2936 225.396 38.6583C225.778 39.023 226.455 39.3269 227.427 39.57V40.8465H214.715V39.57ZM229.902 28.6029C229.902 24.5044 230.988 21.3263 233.158 19.0686C235.347 16.7935 237.978 15.656 241.052 15.656C242.806 15.656 244.456 16.1162 246.001 17.0367C247.547 17.9571 248.736 19.2336 249.57 20.866C250.195 22.0991 250.629 23.6968 250.873 25.6593C250.994 26.5797 251.055 27.2831 251.055 27.7693H237.457C237.578 29.9054 237.926 31.755 238.499 33.318C239.541 36.253 241.373 37.7205 243.995 37.7205C245.246 37.7205 246.427 37.3297 247.538 36.5482C248.215 36.0793 249.058 35.2891 250.065 34.1777L251.289 34.9331C249.64 37.6423 247.729 39.5266 245.558 40.586C244.152 41.2633 242.537 41.602 240.713 41.602C238.091 41.602 235.633 40.5686 233.341 38.502C231.048 36.4353 229.902 33.1357 229.902 28.6029ZM244.49 25.7895C244.456 22.6461 244.212 20.4492 243.761 19.1988C243.309 17.9484 242.406 17.3232 241.052 17.3232C239.662 17.3232 238.707 18.0439 238.186 19.4854C237.683 20.9268 237.396 23.0282 237.327 25.7895H244.49ZM266.334 0.833471H274.817C275.19 0.833471 275.564 1.10022 275.617 1.52703L276.791 14.1711C276.844 14.758 277.004 15.1848 277.218 15.1848C277.431 15.1848 277.644 14.758 277.698 14.1711L278.978 1.52703C279.085 1.10022 279.245 0.833471 279.618 0.833471H285.06C285.327 0.833471 285.647 1.10022 285.7 1.42033L287.088 14.1711C287.141 14.758 287.301 15.1848 287.514 15.1848C287.728 15.1848 287.941 14.758 287.994 14.1711L289.061 1.47368C289.115 1.10022 289.328 0.833471 289.648 0.833471H298.291C298.825 0.833471 298.985 1.15358 298.931 1.58038L293.97 40.0462C293.916 40.5797 293.596 40.8465 293.276 40.8465H285.487C285.167 40.8465 284.9 40.5797 284.847 40.2596L282.819 27.3488C282.766 26.8686 282.606 26.4952 282.393 26.4952C282.179 26.4952 282.019 26.922 281.966 27.4021L280.099 40.2063C279.992 40.5797 279.832 40.8465 279.512 40.8465H271.616C271.242 40.8465 270.922 40.5264 270.869 40.1529L265.747 1.52703C265.694 1.04687 265.961 0.833471 266.334 0.833471ZM300.133 28.6029C300.133 24.5044 301.219 21.3263 303.39 19.0686C305.578 16.7935 308.209 15.656 311.283 15.656C313.037 15.656 314.687 16.1162 316.232 17.0367C317.778 17.9571 318.968 19.2336 319.801 20.866C320.426 22.0991 320.861 23.6968 321.104 25.6593C321.225 26.5797 321.286 27.2831 321.286 27.7693H307.688C307.81 29.9054 308.157 31.755 308.73 33.318C309.772 36.253 311.604 37.7205 314.227 37.7205C315.477 37.7205 316.658 37.3297 317.769 36.5482C318.447 36.0793 319.289 35.2891 320.296 34.1777L321.521 34.9331C319.871 37.6423 317.96 39.5266 315.79 40.586C314.383 41.2633 312.768 41.602 310.944 41.602C308.322 41.602 305.864 40.5686 303.572 38.502C301.28 36.4353 300.133 33.1357 300.133 28.6029ZM314.722 25.7895C314.687 22.6461 314.444 20.4492 313.992 19.1988C313.541 17.9484 312.637 17.3232 311.283 17.3232C309.894 17.3232 308.938 18.0439 308.417 19.4854C307.914 20.9268 307.627 23.0282 307.558 25.7895H314.722ZM333.868 35.6625C333.938 36.6351 334.129 37.4339 334.441 38.0591C335.067 39.2748 336.109 39.8826 337.567 39.8826C339.391 39.8826 340.676 38.9188 341.423 36.9911C342.187 35.0634 342.569 32.3368 342.569 28.8113C342.569 26.0153 342.23 23.61 341.553 21.5954C340.893 19.5809 339.591 18.5736 337.646 18.5736C336.499 18.5736 335.579 18.9991 334.884 19.8501C334.207 20.6837 333.868 21.2828 333.868 21.6475V35.6625ZM333.868 4.7931V18.6257C334.702 17.8095 335.475 17.193 336.187 16.7762C337.489 16.0294 338.896 15.656 340.407 15.656C343.411 15.656 345.825 16.8283 347.649 19.1728C349.49 21.5173 350.41 24.4002 350.41 27.8214C350.41 32.2326 349.238 35.6365 346.893 38.0331C344.566 40.4123 341.666 41.602 338.193 41.602C336.769 41.602 335.51 41.3241 334.415 40.7683C333.321 40.2126 332.297 39.4832 331.341 38.5801L327.147 41.602H326.392V9.16952C326.392 8.05805 326.192 7.31128 325.793 6.92921C325.393 6.52977 324.647 6.2519 323.553 6.0956V4.7931H333.868ZM367.03 32.771H368.515C369.036 35.3239 370.009 37.13 371.433 38.1894C372.857 39.2314 374.316 39.7524 375.809 39.7524C377.181 39.7524 378.188 39.4485 378.831 38.8406C379.473 38.2154 379.795 37.3992 379.795 36.3919C379.795 35.4367 379.447 34.6205 378.753 33.9432C378.371 33.5785 377.754 33.1878 376.903 32.771L372.944 30.8432C370.86 29.8186 369.366 28.7071 368.463 27.5088C367.542 26.3105 367.082 24.8951 367.082 23.2626C367.082 21.196 367.803 19.4159 369.244 17.9224C370.686 16.4115 372.7 15.656 375.288 15.656C376.417 15.656 377.615 15.847 378.883 16.2291C380.151 16.5938 380.941 16.7762 381.254 16.7762C381.688 16.7762 381.992 16.6893 382.165 16.5157C382.356 16.3246 382.513 16.0641 382.634 15.7342H383.806V23.445H382.452C381.948 21.6389 381.123 20.1887 379.977 19.0946C378.831 18.0005 377.494 17.4535 375.965 17.4535C374.784 17.4535 373.899 17.7834 373.308 18.4434C372.735 19.1033 372.449 19.8153 372.449 20.5795C372.449 21.2047 372.709 21.8299 373.23 22.4551C373.734 23.0977 374.689 23.7576 376.096 24.4349L379.013 25.8416C380.819 26.71 382.139 27.5522 382.973 28.3685C384.362 29.7578 385.057 31.4684 385.057 33.5004C385.057 35.4802 384.336 37.3297 382.895 39.049C381.471 40.751 379.326 41.602 376.46 41.602C375.748 41.602 375.028 41.5238 374.298 41.3675C373.586 41.2286 372.7 40.9767 371.641 40.612L370.729 40.2994C370.399 40.1779 370.191 40.1084 370.104 40.091C370.035 40.0737 369.939 40.065 369.818 40.065C369.522 40.065 369.262 40.1866 369.036 40.4297C368.828 40.6555 368.585 41.0462 368.307 41.602H367.03V32.771ZM389.668 8.12751C389.668 6.98131 390.067 6.00877 390.866 5.2099C391.682 4.39366 392.664 3.98554 393.81 3.98554C394.939 3.98554 395.902 4.39366 396.701 5.2099C397.518 6.00877 397.926 6.98131 397.926 8.12751C397.926 9.27372 397.518 10.2549 396.701 11.0712C395.902 11.8701 394.939 12.2695 393.81 12.2695C392.664 12.2695 391.682 11.8701 390.866 11.0712C390.067 10.2549 389.668 9.27372 389.668 8.12751ZM387.323 39.57C388.261 39.4137 388.904 39.1793 389.251 38.8667C389.772 38.3978 390.032 37.5555 390.032 36.3398V20.6576C390.032 19.5809 389.85 18.8515 389.485 18.4694C389.121 18.07 388.4 17.7748 387.323 17.5837V16.2812H397.561V36.5482C397.561 37.7118 397.735 38.4586 398.082 38.7885C398.429 39.1185 399.081 39.379 400.036 39.57V40.8465H387.323V39.57ZM402.172 18.6257V17.1409C402.641 16.7067 403.223 16.1944 403.917 15.6039C404.838 14.7529 405.706 13.8759 406.522 12.9728C408.137 11.2014 409.605 9.29977 410.925 7.26786H412.279V16.2812H417.359V18.6257H412.279V34.6726C412.279 35.4194 412.392 36.0446 412.618 36.5482C412.965 37.3297 413.538 37.7205 414.337 37.7205C415.032 37.7205 415.614 37.4773 416.083 36.9911C416.552 36.4874 417.02 35.8015 417.489 34.9331L418.766 35.5583C418.141 37.0171 417.394 38.2067 416.525 39.1272C414.997 40.7423 413.13 41.5499 410.925 41.5499C409.674 41.5499 408.58 41.3154 407.642 40.8465C405.836 39.9434 404.933 38.3023 404.933 35.923V18.6257H402.172ZM420.277 28.6029C420.277 24.5044 421.362 21.3263 423.533 19.0686C425.721 16.7935 428.352 15.656 431.426 15.656C433.18 15.656 434.83 16.1162 436.376 17.0367C437.921 17.9571 439.111 19.2336 439.945 20.866C440.57 22.0991 441.004 23.6968 441.247 25.6593C441.369 26.5797 441.429 27.2831 441.429 27.7693H427.831C427.953 29.9054 428.3 31.755 428.873 33.318C429.915 36.253 431.747 37.7205 434.37 37.7205C435.62 37.7205 436.801 37.3297 437.913 36.5482C438.59 36.0793 439.432 35.2891 440.439 34.1777L441.664 34.9331C440.014 37.6423 438.104 39.5266 435.933 40.586C434.526 41.2633 432.911 41.602 431.087 41.602C428.465 41.602 426.008 40.5686 423.715 38.502C421.423 36.4353 420.277 33.1357 420.277 28.6029ZM434.865 25.7895C434.83 22.6461 434.587 20.4492 434.135 19.1988C433.684 17.9484 432.781 17.3232 431.426 17.3232C430.037 17.3232 429.082 18.0439 428.561 19.4854C428.057 20.9268 427.77 23.0282 427.701 25.7895H434.865Z" fill="#FFC567"/>
</svg>
